<svg width="61" height="30" viewBox="0 0 61 30" fill="none" xmlns="http://www.w3.org/2000/svg">
<rect width="61" height="30" rx="15" fill="url(#paint0_linear_420_408)"/>
<path d="M21.1181 9.33594C21.941 9.33594 22.6259 9.50521 23.1728 9.84375C23.7249 10.1771 24.1416 10.625 24.4228 11.1875C24.7041 11.7448 24.8447 12.3594 24.8447 13.0312C24.8447 13.7083 24.7015 14.3255 24.415 14.8828C24.1337 15.4349 23.7145 15.875 23.1572 16.2031C22.5999 16.526 21.9098 16.6875 21.0869 16.6875H19.1806V20H16.6181V9.33594H21.1181ZM22.2431 13.0312C22.2431 12.474 22.0895 12.0469 21.7822 11.75C21.4749 11.4531 21.0556 11.3047 20.5244 11.3047H19.1728V14.7578H20.5244C20.8785 14.7578 21.1832 14.6901 21.4384 14.5547C21.6989 14.4193 21.8968 14.224 22.0322 13.9688C22.1728 13.7083 22.2431 13.3958 22.2431 13.0312ZM30.9453 9.33594C31.7891 9.33594 32.5026 9.48177 33.0859 9.77344C33.6693 10.0599 34.112 10.4661 34.4141 10.9922C34.7161 11.513 34.8672 12.125 34.8672 12.8281C34.8672 13.375 34.7656 13.8542 34.5625 14.2656C34.3594 14.6719 34.1094 15.0052 33.8125 15.2656C33.5208 15.526 33.237 15.7135 32.9609 15.8281L35.0859 20H32.2422L30.4375 16.1875H28.9609V20H26.4375V9.33594H30.9453ZM28.9609 14.3672H30.5391C31.0391 14.3672 31.4453 14.2422 31.7578 13.9922C32.0703 13.737 32.2266 13.3542 32.2266 12.8438C32.2266 12.3281 32.0677 11.9349 31.75 11.6641C31.4323 11.3932 31.0365 11.2578 30.5625 11.2578H28.9609V14.3672ZM43.1866 14.0312C43.1866 13.4115 43.0954 12.8958 42.9131 12.4844C42.736 12.0677 42.4886 11.7552 42.1709 11.5469C41.8532 11.3385 41.4834 11.2344 41.0616 11.2344C40.6345 11.2344 40.2621 11.3385 39.9444 11.5469C39.6267 11.7552 39.3767 12.0677 39.1944 12.4844C39.0173 12.8958 38.9287 13.4115 38.9287 14.0312V15.3125C38.9287 15.9271 39.0173 16.4427 39.1944 16.8594C39.3767 17.276 39.6267 17.5885 39.9444 17.7969C40.2621 18.0052 40.6345 18.1094 41.0616 18.1094C41.4834 18.1094 41.8532 18.0052 42.1709 17.7969C42.4886 17.5885 42.736 17.276 42.9131 16.8594C43.0954 16.4427 43.1866 15.9271 43.1866 15.3125V14.0312ZM45.8037 15.3047C45.8037 16.2995 45.6162 17.1641 45.2412 17.8984C44.8715 18.6328 44.3324 19.2005 43.6241 19.6016C42.9209 19.9974 42.0668 20.1953 41.0616 20.1953C40.0616 20.1953 39.2048 19.9974 38.4912 19.6016C37.7829 19.2005 37.2412 18.6328 36.8662 17.8984C36.4965 17.1641 36.3116 16.2995 36.3116 15.3047V14.0625C36.3116 13.0521 36.4965 12.1797 36.8662 11.4453C37.2412 10.7057 37.7829 10.138 38.4912 9.74219C39.2048 9.34635 40.0616 9.14844 41.0616 9.14844C42.0668 9.14844 42.9209 9.34896 43.6241 9.75C44.3324 10.151 44.8715 10.7188 45.2412 11.4531C45.6162 12.1823 45.8037 13.0521 45.8037 14.0625V15.3047Z" fill="white"/>
<defs>
<linearGradient id="paint0_linear_420_408" x1="5.30233e-08" y1="15" x2="61" y2="11.5" gradientUnits="userSpaceOnUse">
<stop stop-color="#1D1D1D"/>
<stop offset="1" stop-color="#4E4E4E"/>
</linearGradient>
</defs>
</svg>
