<svg width="24" height="24" viewBox="0 0 24 24" fill="none" xmlns="http://www.w3.org/2000/svg">
<rect width="24" height="24" rx="6" fill="#2042E9"/>
<path d="M5 7.42495V13.725C5 14.8847 5.9402 15.825 7.1 15.825C7.2933 15.825 7.45 15.9817 7.45 16.175V17.985C7.45 18.6086 8.204 18.921 8.64498 18.48L11.1975 15.9275C11.2631 15.8618 11.3521 15.825 11.445 15.825H16.9C18.0598 15.825 19 14.8847 19 13.725V7.42495C19 6.26515 18.0598 5.32495 16.9 5.32495H7.1C5.9402 5.32495 5 6.26515 5 7.42495Z" fill="white"/>
<path d="M7.46924 10.5859C7.46924 9.98592 7.95516 9.5 8.5551 9.5C9.15503 9.5 9.64095 9.98592 9.64095 10.5859C9.64095 11.1858 9.15503 11.6717 8.5551 11.6717C7.95516 11.6717 7.46924 11.1858 7.46924 10.5859Z" fill="#2042E9"/>
<path d="M11.2697 10.5859C11.2697 9.98592 11.7557 9.5 12.3556 9.5C12.9555 9.5 13.4415 9.98592 13.4415 10.5859C13.4415 11.1858 12.9555 11.6717 12.3556 11.6717C11.7557 11.6717 11.2697 11.1858 11.2697 10.5859Z" fill="#2042E9"/>
<path d="M15.0702 10.5859C15.0702 9.98592 15.5562 9.5 16.1561 9.5C16.756 9.5 17.242 9.98592 17.242 10.5859C17.242 11.1858 16.756 11.6717 16.1561 11.6717C15.5562 11.6717 15.0702 11.1858 15.0702 10.5859Z" fill="#2042E9"/>
</svg>
