<svg width="34" height="34" viewBox="0 0 34 34" fill="none" xmlns="http://www.w3.org/2000/svg">
<rect width="34" height="34" rx="12" transform="matrix(-1 0 0 1 34 0)" fill="#F5F5F5"/>
<path fill-rule="evenodd" clip-rule="evenodd" d="M22.5899 13.5742C22.9804 13.1837 22.9804 12.5505 22.5899 12.16C22.1994 11.7695 21.5662 11.7695 21.1757 12.16L17.375 15.9607L13.5743 12.16C13.1838 11.7695 12.5506 11.7695 12.1601 12.16C11.7696 12.5505 11.7696 13.1837 12.1601 13.5742L15.9608 17.3749L12.1601 21.1756C11.7696 21.5661 11.7696 22.1993 12.1601 22.5898C12.5506 22.9803 13.1838 22.9803 13.5743 22.5898L17.375 18.7891L21.1757 22.5898C21.5662 22.9803 22.1994 22.9803 22.5899 22.5898C22.9804 22.1993 22.9804 21.5661 22.5899 21.1756L18.7892 17.3749L22.5899 13.5742Z" fill="#3D3D3D"/>
</svg>
