<svg width="22" height="19" viewBox="0 0 22 19" fill="none" xmlns="http://www.w3.org/2000/svg">
<path d="M20.482 7.85747L18.7406 2.88208C18.2659 1.52654 16.9815 0.615234 15.5447 0.615234H6.45531C5.01854 0.615234 3.73408 1.52654 3.26023 2.88123L1.51885 7.85662C0.588923 8.46839 0 9.52524 0 10.6879V16.6922C0 17.6272 0.757308 18.3845 1.69231 18.3845C2.62731 18.3845 3.38462 17.6272 3.38462 16.6922V15.6252C3.38462 15.6252 7.85315 15.846 11 15.846C14.1468 15.846 18.6154 15.6252 18.6154 15.6252V16.6922C18.6154 17.6272 19.3727 18.3845 20.3077 18.3845C21.2427 18.3845 22 17.6272 22 16.6922V10.6879C22 9.52524 21.4102 8.46839 20.482 7.85747ZM3.88808 6.21085L4.85777 3.44054C5.09554 2.76193 5.73608 2.30754 6.45531 2.30754H15.5447C16.2639 2.30754 16.9045 2.76193 17.1422 3.44054L18.1119 6.21085C18.2642 6.64662 17.9012 7.08577 17.4452 7.01216C15.7858 6.74393 13.6527 6.53831 11 6.53831C8.34731 6.53831 6.21415 6.74393 4.55485 7.01216C4.09877 7.08577 3.73577 6.64662 3.88808 6.21085ZM3.80769 12.4614C3.10708 12.4614 2.53846 11.8928 2.53846 11.1922C2.53846 10.4915 3.10708 9.92293 3.80769 9.92293C4.50831 9.92293 5.07692 10.4915 5.07692 11.1922C5.07692 11.8928 4.50831 12.4614 3.80769 12.4614ZM13.5385 11.6152H8.46154C7.99446 11.6152 7.61538 11.2362 7.61538 10.7691C7.61538 10.302 7.99446 9.92293 8.46154 9.92293H13.5385C14.0055 9.92293 14.3846 10.302 14.3846 10.7691C14.3846 11.2362 14.0055 11.6152 13.5385 11.6152ZM18.1923 12.4614C17.4917 12.4614 16.9231 11.8928 16.9231 11.1922C16.9231 10.4915 17.4917 9.92293 18.1923 9.92293C18.8929 9.92293 19.4615 10.4915 19.4615 11.1922C19.4615 11.8928 18.8929 12.4614 18.1923 12.4614Z" fill="#1C9837"/>
</svg>
