<svg width="60" height="60" viewBox="0 0 60 60" fill="none" xmlns="http://www.w3.org/2000/svg">
<g clip-path="url(#clip0_996_1022)">
<circle cx="30" cy="30" r="30" fill="#FFE3E3"/>
<path d="M41.084 23.5657C41.0596 23.5657 41.023 23.5657 40.9863 23.5657C34.5276 22.9186 28.0812 22.6744 21.6957 23.3215L19.205 23.5657C18.6922 23.6145 18.2405 23.2482 18.1916 22.7354C18.1428 22.2226 18.5091 21.7831 19.0096 21.7343L21.5003 21.4901C27.9957 20.8308 34.5765 21.0872 41.1695 21.7343C41.67 21.7831 42.0363 22.2348 41.9875 22.7354C41.9509 23.2116 41.548 23.5657 41.084 23.5657Z" fill="#E84949"/>
<path d="M25.8238 22.3325C25.775 22.3325 25.7262 22.3325 25.6651 22.3203C25.1767 22.2349 24.8349 21.7587 24.9203 21.2703L25.1889 19.6709C25.3843 18.4988 25.6529 16.875 28.4976 16.875H31.6964C34.5534 16.875 34.822 18.5599 35.0051 19.6831L35.2737 21.2703C35.3592 21.7709 35.0173 22.2471 34.529 22.3203C34.0284 22.4058 33.5522 22.0639 33.479 21.5756L33.2104 19.9884C33.0394 18.9262 33.0028 18.7186 31.7086 18.7186H28.5098C27.2157 18.7186 27.1913 18.8895 27.0081 19.9761L26.7273 21.5634C26.6541 22.0151 26.2634 22.3325 25.8238 22.3325Z" fill="#E84949"/>
<path d="M34.0155 43.1251H26.1772C21.9162 43.1251 21.7452 40.7687 21.6109 38.8641L20.8173 26.5693C20.7807 26.0688 21.1714 25.6292 21.672 25.5926C22.1848 25.5682 22.6121 25.9467 22.6487 26.4473L23.4423 38.742C23.5766 40.5978 23.6254 41.2937 26.1772 41.2937H34.0155C36.5795 41.2937 36.6283 40.5978 36.7504 38.742L37.544 26.4473C37.5806 25.9467 38.0202 25.5682 38.5207 25.5926C39.0213 25.6292 39.412 26.0565 39.3754 26.5693L38.5818 38.8641C38.4475 40.7687 38.2766 43.1251 34.0155 43.1251Z" fill="#E84949"/>
<path d="M32.1237 36.4096H28.0581C27.5574 36.4096 27.1423 35.9945 27.1423 35.4939C27.1423 34.9933 27.5574 34.5782 28.0581 34.5782H32.1237C32.6243 34.5782 33.0394 34.9933 33.0394 35.4939C33.0394 35.9945 32.6243 36.4096 32.1237 36.4096Z" fill="#E84949"/>
<path d="M33.1485 31.5263H27.0439C26.5433 31.5263 26.1282 31.1112 26.1282 30.6106C26.1282 30.11 26.5433 29.6949 27.0439 29.6949H33.1485C33.6491 29.6949 34.0642 30.11 34.0642 30.6106C34.0642 31.1112 33.6491 31.5263 33.1485 31.5263Z" fill="#E84949"/>
</g>
<defs>
<clipPath id="clip0_996_1022">
<rect width="60" height="60" fill="white"/>
</clipPath>
</defs>
</svg>
