<svg width="12" height="12" viewBox="0 0 12 12" fill="none" xmlns="http://www.w3.org/2000/svg">
<path d="M10.7036 2.72735C11.0988 2.33219 11.0988 1.69152 10.7036 1.29637C10.3085 0.901211 9.6678 0.901211 9.27265 1.29637L5.99999 4.56902L2.72735 1.29638C2.3322 0.901223 1.69152 0.901223 1.29637 1.29638C0.901212 1.69153 0.901212 2.33221 1.29637 2.72736L4.56901 6L1.29637 9.27264C0.901211 9.66779 0.901211 10.3085 1.29637 10.7036C1.69152 11.0988 2.3322 11.0988 2.72735 10.7036L5.99999 7.43098L9.27265 10.7036C9.6678 11.0988 10.3085 11.0988 10.7036 10.7036C11.0988 10.3085 11.0988 9.66781 10.7036 9.27265L7.43098 6L10.7036 2.72735Z" fill="#869AFF"/>
</svg>
