<svg width="34" height="34" viewBox="0 0 34 34" fill="none" xmlns="http://www.w3.org/2000/svg">
<rect width="34" height="34" rx="12" transform="matrix(-1 0 0 1 34 0)" fill="#F5F5F5"/>
<path d="M11.6588 24C11.1292 24 10.643 23.8089 10.287 23.4614C9.86162 23.0358 9.6793 22.4191 9.7748 21.7676L10.1481 19.1529C10.2176 18.6491 10.5475 17.9976 10.9035 17.6415L17.7448 10.7965C19.4726 9.06785 21.2263 9.06785 22.954 10.7965C23.9004 11.7433 24.3258 12.7075 24.239 13.6717C24.1608 14.4535 23.7441 15.2179 22.954 15.9997L16.1126 22.8447C15.7567 23.2008 15.1055 23.5309 14.6019 23.6004L11.9887 23.9739C11.8758 24 11.763 24 11.6588 24ZM18.6651 11.7172L11.8238 18.5622C11.6588 18.7273 11.4678 19.1095 11.4331 19.3353L11.0597 21.95C11.025 22.2019 11.0771 22.4104 11.2073 22.5407C11.3376 22.671 11.5459 22.7231 11.7977 22.6883L14.4109 22.3148C14.6367 22.2801 15.0274 22.089 15.1836 21.9239L22.0251 15.0789C22.5894 14.5143 22.8846 14.0105 22.928 13.5414C22.9801 12.9768 22.6849 12.3774 22.0251 11.7085C20.6359 10.3187 19.6809 10.7096 18.6651 11.7172Z" fill="#3D3D3D" stroke="#3D3D3D" stroke-width="0.4"/>
<path d="M21.513 17.1722C21.4523 17.1722 21.3915 17.1636 21.3394 17.1462C19.056 16.5034 17.2415 14.6879 16.599 12.4034C16.5035 12.0559 16.7032 11.6997 17.0505 11.5955C17.3978 11.5 17.7537 11.6997 17.8492 12.0472C18.3702 13.8974 19.8374 15.3655 21.6867 15.8866C22.034 15.9822 22.2337 16.347 22.1381 16.6945C22.06 16.9898 21.7996 17.1722 21.513 17.1722Z" fill="#3D3D3D" stroke="#3D3D3D" stroke-width="0.4"/>
</svg>
