<svg width="24" height="24" viewBox="0 0 24 24" fill="none" xmlns="http://www.w3.org/2000/svg">
<rect width="24" height="24" rx="6" fill="#2042E9"/>
<path d="M16.6926 17H7.30741C6.94768 17 6.63741 16.7474 6.56452 16.3951L4.92759 8.48321C4.77499 7.74564 5.67432 7.2605 6.2069 7.79308L7.6705 9.25668C7.96676 9.55294 8.44709 9.55294 8.74335 9.25668L11.4636 6.53643C11.7599 6.24017 12.2402 6.24017 12.5365 6.53643L15.2567 9.25668C15.553 9.55294 16.0333 9.55294 16.3296 9.25668L17.7932 7.79308C18.3257 7.2605 19.2251 7.74564 19.0725 8.48321L17.4355 16.3951C17.3626 16.7474 17.0524 17 16.6926 17Z" fill="white"/>
</svg>
