<svg width="24" height="24" viewBox="0 0 24 24" fill="none" xmlns="http://www.w3.org/2000/svg">
<rect width="24" height="24" rx="6" fill="#2042E9"/>
<path fill-rule="evenodd" clip-rule="evenodd" d="M12.0001 5C9.48718 5 7.45007 7.0371 7.45007 9.55V12.7995H7.44971C6.73174 12.7995 6.14971 13.3815 6.14971 14.0995C6.14971 14.8174 6.73174 15.3995 7.44971 15.3995H16.5497C17.2677 15.3995 17.8497 14.8174 17.8497 14.0995C17.8497 13.3816 17.2679 12.7997 16.5501 12.7995V9.55C16.5501 7.03711 14.513 5 12.0001 5Z" fill="white"/>
<path d="M9.39966 16.4004H14.5997C14.5997 17.8363 13.4356 19.0004 11.9997 19.0004C10.5637 19.0004 9.39966 17.8363 9.39966 16.4004Z" fill="white"/>
</svg>
