<svg width="30" height="30" viewBox="0 0 30 30" fill="none" xmlns="http://www.w3.org/2000/svg">
<path d="M26.084 8.56566C26.0596 8.56566 26.023 8.56566 25.9863 8.56566C19.5276 7.91857 13.0812 7.67438 6.69568 8.32147L4.20499 8.56566C3.6922 8.61449 3.24046 8.24822 3.19162 7.73543C3.14279 7.22264 3.50906 6.78311 4.00964 6.73427L6.50033 6.49009C12.9957 5.83079 19.5765 6.08718 26.1695 6.73427C26.67 6.78311 27.0363 7.23485 26.9875 7.73543C26.9509 8.21159 26.548 8.56566 26.084 8.56566Z" fill="#E84949"/>
<path d="M10.8238 7.33253C10.775 7.33253 10.7262 7.33253 10.6651 7.32032C10.1767 7.23486 9.83488 6.7587 9.92034 6.27033L10.1889 4.67092C10.3843 3.49883 10.6529 1.875 13.4976 1.875H16.6964C19.5534 1.875 19.822 3.55988 20.0051 4.68313L20.2737 6.27033C20.3592 6.77091 20.0173 7.24707 19.529 7.32032C19.0284 7.40579 18.5522 7.06393 18.479 6.57556L18.2104 4.98836C18.0394 3.92615 18.0028 3.7186 16.7086 3.7186H13.5098C12.2157 3.7186 12.1913 3.88953 12.0081 4.97615L11.7273 6.56335C11.6541 7.01509 11.2634 7.33253 10.8238 7.33253Z" fill="#E84949"/>
<path d="M19.0155 28.1251H11.1772C6.91615 28.1251 6.74522 25.7687 6.61092 23.8641L5.81732 11.5693C5.78069 11.0688 6.17139 10.6292 6.67197 10.5926C7.18476 10.5682 7.61208 10.9467 7.64871 11.4473L8.44231 23.742C8.57661 25.5978 8.62545 26.2937 11.1772 26.2937H19.0155C21.5795 26.2937 21.6283 25.5978 21.7504 23.742L22.544 11.4473C22.5806 10.9467 23.0202 10.5682 23.5207 10.5926C24.0213 10.6292 24.412 11.0565 24.3754 11.5693L23.5818 23.8641C23.4475 25.7687 23.2766 28.1251 19.0155 28.1251Z" fill="#E84949"/>
<path d="M17.1237 21.4096H13.0581C12.5574 21.4096 12.1423 20.9945 12.1423 20.4939C12.1423 19.9933 12.5574 19.5782 13.0581 19.5782H17.1237C17.6243 19.5782 18.0394 19.9933 18.0394 20.4939C18.0394 20.9945 17.6243 21.4096 17.1237 21.4096Z" fill="#E84949"/>
<path d="M18.1485 16.5263H12.0439C11.5433 16.5263 11.1282 16.1112 11.1282 15.6106C11.1282 15.11 11.5433 14.6949 12.0439 14.6949H18.1485C18.6491 14.6949 19.0642 15.11 19.0642 15.6106C19.0642 16.1112 18.6491 16.5263 18.1485 16.5263Z" fill="#E84949"/>
</svg>
