<svg width="15" height="14" viewBox="0 0 15 14" fill="none" xmlns="http://www.w3.org/2000/svg">
<path fill-rule="evenodd" clip-rule="evenodd" d="M7.27778 0C6.74595 0 6.31481 0.431134 6.31481 0.962963V6.03707H1.2408C0.708965 6.03707 0.277832 6.46821 0.277832 7.00004C0.277832 7.53187 0.708966 7.963 1.2408 7.963H6.31481V13.037C6.31481 13.5689 6.74595 14 7.27778 14C7.80961 14 8.24074 13.5689 8.24074 13.037V7.963H13.3149C13.8467 7.963 14.2778 7.53187 14.2778 7.00004C14.2778 6.46821 13.8467 6.03707 13.3149 6.03707H8.24074V0.962963C8.24074 0.431133 7.80961 0 7.27778 0Z" fill="#939393"/>
</svg>
