<svg width="24" height="24" viewBox="0 0 24 24" fill="none" xmlns="http://www.w3.org/2000/svg">
<path d="M7.34389 5C6.21494 5 5.29126 5.92368 5.29126 7.05263V15.9474C5.29126 17.0763 6.21494 18 7.34389 18H16.9228C17.3005 18 17.607 17.6935 17.607 17.3158V13.0127C17.1753 13.1427 16.7156 13.2105 16.236 13.2105C13.6777 13.2092 11.5018 11.0809 11.4505 8.52262C11.4348 7.74535 11.5995 7.01911 11.9142 6.36842H9.39652V5.68421C9.39652 5.30653 9.09 5 8.71231 5H7.34389ZM15.6065 5C15.5183 5 15.4444 5.0661 15.4341 5.15368L15.354 5.84591C15.0233 5.96085 14.7245 6.13593 14.4653 6.3604L13.8238 6.08378C13.7431 6.04888 13.6485 6.07931 13.6047 6.15594L12.9646 7.26511C12.9201 7.34106 12.9409 7.43827 13.0113 7.49095L13.5633 7.90121C13.5308 8.06972 13.5111 8.24309 13.5111 8.42105C13.5111 8.59902 13.5308 8.77239 13.5633 8.94089L13.0113 9.35115C12.9409 9.40315 12.9208 9.50036 12.9646 9.57699L13.6047 10.6862C13.6485 10.7628 13.7431 10.7946 13.8238 10.7597L14.4653 10.4817C14.7245 10.7062 15.0233 10.8813 15.354 10.9962L15.4341 11.6884C15.4444 11.776 15.5183 11.8421 15.6065 11.8421H16.8881C16.9764 11.8421 17.0502 11.776 17.0605 11.6884L17.1407 10.9962C17.4717 10.8813 17.7712 10.7064 18.0307 10.4817L18.6708 10.757C18.7515 10.7919 18.8462 10.7615 18.8899 10.6848L19.5301 9.57566C19.5745 9.49971 19.5538 9.4025 19.4833 9.34981L18.9314 8.94089C18.9638 8.77239 18.9848 8.59902 18.9848 8.42105C18.9848 8.24308 18.9638 8.06972 18.9314 7.90121L19.4833 7.49095C19.5538 7.43895 19.5738 7.34174 19.5301 7.26511L18.8899 6.15594C18.8462 6.07931 18.7515 6.04755 18.6708 6.08244L18.0307 6.3604C17.7712 6.13575 17.4717 5.96084 17.1407 5.84591L17.0605 5.15368C17.0502 5.0661 16.9764 5 16.8881 5H15.6065ZM7.34389 6.36842H8.0281V14.5789H7.34389C7.10442 14.5789 6.87179 14.6199 6.65968 14.6952V7.05263C6.65968 6.67632 6.96758 6.36842 7.34389 6.36842ZM16.248 7.22368C16.9089 7.22368 17.4454 7.76011 17.4454 8.42105C17.4454 9.08268 16.9089 9.61842 16.248 9.61842C15.587 9.61842 15.0506 9.08268 15.0506 8.42105C15.0506 7.76011 15.587 7.22368 16.248 7.22368Z" fill="#2042E9"/>
</svg>
