<svg width="28" height="28" viewBox="0 0 28 28" fill="none" xmlns="http://www.w3.org/2000/svg">
<rect width="28" height="28" rx="14" fill="#2042E9"/>
<path d="M10.1957 8.5892L9.4816 8.36V8.36L10.1957 8.5892ZM17.8054 8.5892L18.5195 8.36V8.36L17.8054 8.5892ZM9.97707 9.27045L9.26295 9.04125L9.97707 9.27045ZM10.9098 8.8184C11.0663 8.33075 11.5199 8 12.032 8V6.5C10.8681 6.5 9.83731 7.25171 9.4816 8.36L10.9098 8.8184ZM10.6912 9.49965L10.9098 8.8184L9.4816 8.36L9.26295 9.04125L10.6912 9.49965ZM9.17901 10.411H9.44148V8.91105H9.17901V10.411ZM7.27723 12.3128C7.27723 11.2625 8.12869 10.411 9.17901 10.411V8.91105C7.30026 8.91105 5.77723 10.4341 5.77723 12.3128H7.27723ZM7.27723 18.0985V12.3128H5.77723V18.0985H7.27723ZM9.17901 20.0003C8.12869 20.0003 7.27723 19.1489 7.27723 18.0985H5.77723C5.77723 19.9773 7.30026 21.5003 9.17901 21.5003V20.0003ZM18.8219 20.0003H9.17901V21.5003H18.8219V20.0003ZM20.7237 18.0985C20.7237 19.1489 19.8722 20.0003 18.8219 20.0003V21.5003C20.7006 21.5003 22.2237 19.9773 22.2237 18.0985H20.7237ZM20.7237 12.3128V18.0985H22.2237V12.3128H20.7237ZM18.8219 10.411C19.8722 10.411 20.7237 11.2625 20.7237 12.3128H22.2237C22.2237 10.4341 20.7006 8.91105 18.8219 8.91105V10.411ZM18.5596 10.411H18.8219V8.91105H18.5596V10.411ZM17.0912 8.8184L17.3099 9.49965L18.7381 9.04125L18.5195 8.36L17.0912 8.8184ZM15.9691 8C16.4812 8 16.9347 8.33075 17.0912 8.8184L18.5195 8.36C18.1638 7.25171 17.133 6.5 15.9691 6.5V8ZM12.032 8H15.9691V6.5H12.032V8ZM18.5596 8.91105C18.6411 8.91105 18.7132 8.96367 18.7381 9.04125L17.3099 9.49965C17.4842 10.0427 17.9893 10.411 18.5596 10.411V8.91105ZM9.26295 9.04125C9.28785 8.96367 9.36 8.91105 9.44148 8.91105V10.411C10.0118 10.411 10.5169 10.0427 10.6912 9.49965L9.26295 9.04125Z" fill="white"/>
<circle cx="13.9997" cy="15.0089" r="3.00893" stroke="white" stroke-width="1.5"/>
<path d="M19.1315 12.2222C19.1315 12.5827 18.8392 12.8751 18.4786 12.8751C18.118 12.8751 17.8257 12.5827 17.8257 12.2222C17.8257 11.8616 18.118 11.5693 18.4786 11.5693C18.8392 11.5693 19.1315 11.8616 19.1315 12.2222Z" fill="white"/>
</svg>
