<svg width="24" height="24" viewBox="0 0 24 24" fill="none" xmlns="http://www.w3.org/2000/svg">
<path d="M17.3333 14V6.5C17.3333 5.11917 16.2142 4 14.8333 4H6.5C5.11917 4 4 5.11917 4 6.5V8.16667C4 8.62667 4.37333 9 4.83333 9H6.5V16.5C6.5 17.8808 7.61917 19 9 19H18.1667C19.5475 19 20.6667 17.8808 20.6667 16.5V14.8333C20.6667 14.3733 20.2933 14 19.8333 14H17.3333ZM14.8333 11.5C14.8333 11.96 14.46 12.3333 14 12.3333H9.83333C9.37333 12.3333 9 11.96 9 11.5C9 11.04 9.37333 10.6667 9.83333 10.6667H14C14.46 10.6667 14.8333 11.04 14.8333 11.5ZM14.8333 14.8333C14.8333 15.2933 14.46 15.6667 14 15.6667H9.83333C9.37333 15.6667 9 15.2933 9 14.8333C9 14.3733 9.37333 14 9.83333 14H14C14.46 14 14.8333 14.3733 14.8333 14.8333ZM5.66667 6.5C5.66667 6.04 6.04083 5.66667 6.5 5.66667H12.4758C12.3842 5.9275 12.3333 6.2075 12.3333 6.5V7.33333H5.66667V6.5ZM19 16.5C19 16.96 18.6258 17.3333 18.1667 17.3333C17.7075 17.3333 17.3333 16.96 17.3333 16.5V15.6667H19V16.5Z" fill="#2042E9"/>
</svg>
