<svg width="34" height="34" viewBox="0 0 34 34" fill="none" xmlns="http://www.w3.org/2000/svg">
<rect width="34" height="34" rx="12" transform="matrix(-1 0 0 1 34 0)" fill="#F5F5F5"/>
<path d="M24 8.25H22C20.48 8.25 19.25 9.48 19.25 11V25C19.25 25.41 19.59 25.75 20 25.75H24C25.52 25.75 26.75 24.52 26.75 23V11C26.75 9.48 25.52 8.25 24 8.25Z" fill="#3D3D3D"/>
<path d="M17.75 12.25H16C14.48 12.25 13.25 13.48 13.25 15V25C13.25 25.41 13.59 25.75 14 25.75H17.89C17.81 25.51 17.75 25.26 17.75 25V12.25Z" fill="#3D3D3D"/>
<path d="M11.75 17.25H10C8.48 17.25 7.25 18.48 7.25 20V23C7.25 24.52 8.48 25.75 10 25.75H11.89C11.81 25.51 11.75 25.26 11.75 25V17.25Z" fill="#3D3D3D"/>
</svg>
