<svg width="20" height="20" viewBox="0 0 20 20" fill="none" xmlns="http://www.w3.org/2000/svg">
<path d="M0.870849 17.756L0.870854 17.756L2.12009 13.1749L0.870849 17.756ZM0.870849 17.756C0.814989 17.961 0.873195 18.1798 1.02339 18.33C1.16714 18.4738 1.39046 18.5386 1.59716 18.4827L1.59743 18.4826M0.870849 17.756L1.59743 18.4826M1.59743 18.4826L6.17853 17.2333L1.59743 18.4826ZM17.0011 1.51944L17.834 2.35229C18.2791 2.7974 18.525 3.39059 18.525 4.01997C18.525 4.64994 18.2791 5.24255 17.834 5.68764L6.44173 17.0805C6.36876 17.1538 6.27808 17.2063 6.17871 17.2333L17.0011 1.51944ZM17.0011 1.51944C16.1079 0.626229 14.5577 0.627478 13.6658 1.51944M17.0011 1.51944L13.6658 1.51944M13.6658 1.51944L2.27296 12.9117M13.6658 1.51944L2.27296 12.9117M2.27296 12.9117C2.27292 12.9117 2.27288 12.9118 2.27284 12.9118M2.27296 12.9117L2.27284 12.9118M2.27284 12.9118C2.19987 12.9844 2.14713 13.0753 2.12014 13.1747L2.27284 12.9118ZM16.9972 4.85086L17.1033 4.95693L16.9972 4.85087L16.1652 5.68294L13.6705 3.18826L14.5026 2.35621L14.5027 2.35609C14.9433 1.91445 15.7219 1.91378 16.1644 2.35621L16.9972 3.18907C17.2193 3.41116 17.3415 3.70604 17.3415 4.01996C17.3415 4.33442 17.2193 4.62874 16.9972 4.85086ZM14.5012 7.34697L12.0065 4.85221L12.8337 4.02499L15.3284 6.51972L14.5012 7.34697ZM6.02321 15.8254L5.1939 14.996L12.8355 7.35473L13.6645 8.18375L6.02321 15.8254ZM3.52826 13.3302L11.1697 5.68898L11.9987 6.51796L4.35718 14.1592L3.52826 13.3302ZM2.99387 14.4694L4.88395 16.3597L2.28508 17.0681L2.99387 14.4694Z" fill="white" stroke="white" stroke-width="0.3"/>
</svg>
