<svg width="24" height="24" viewBox="0 0 24 24" fill="none" xmlns="http://www.w3.org/2000/svg">
<path fill-rule="evenodd" clip-rule="evenodd" d="M8.39122 6.69565C8.39122 5.75917 9.15039 5 10.0869 5H14.6086C15.5451 5 16.3043 5.75917 16.3043 6.69565V6.69567H18.4348C19.9956 6.69567 21.2609 7.96096 21.2609 9.52176V15.1739C21.2609 16.7347 19.9956 18 18.4348 18H6.2609C4.70009 18 3.43481 16.7347 3.43481 15.1739V9.52176C3.43481 7.96096 4.7001 6.69567 6.2609 6.69567H8.39122V6.69565ZM11.7826 7.95651C11.7826 7.64435 12.0356 7.39129 12.3478 7.39129C12.6599 7.39129 12.913 7.64434 12.913 7.95651V10.9348H15.8913C16.2034 10.9348 16.4565 11.1878 16.4565 11.5C16.4565 11.8121 16.2034 12.0652 15.8913 12.0652H12.913V15.0435C12.913 15.3556 12.6599 15.6087 12.3478 15.6087C12.0356 15.6087 11.7826 15.3556 11.7826 15.0435V12.0652H8.80432C8.49216 12.0652 8.2391 11.8121 8.2391 11.5C8.2391 11.1878 8.49216 10.9348 8.80432 10.9348H11.7826V7.95651Z" fill="#2042E9"/>
</svg>
