<svg width="122" height="24" viewBox="0 0 122 24" fill="none" xmlns="http://www.w3.org/2000/svg">
<path d="M17.928 8.088V10.08C17.928 12.48 17.152 14.464 15.6 16.032C14.064 17.6 12.04 18.384 9.528 18.384C6.904 18.384 4.76 17.552 3.096 15.888C1.432 14.208 0.6 12.12 0.6 9.624C0.6 7.128 1.432 5.04 3.096 3.36C4.76 1.664 6.84 0.816 9.336 0.816C10.904 0.816 12.336 1.168 13.632 1.872C14.944 2.576 15.976 3.528 16.728 4.728L12.648 7.056C11.976 6.032 10.904 5.52 9.432 5.52C8.232 5.52 7.256 5.904 6.504 6.672C5.768 7.44 5.4 8.432 5.4 9.648C5.4 10.8 5.744 11.808 6.432 12.672C7.12 13.52 8.184 13.944 9.624 13.944C11.288 13.944 12.4 13.352 12.96 12.168H9.384V8.088H17.928ZM27.5181 6H31.9581V18H27.5181V16.92C26.7501 17.864 25.6781 18.336 24.3021 18.336C22.6861 18.336 21.3661 17.736 20.3421 16.536C19.3181 15.336 18.8061 13.824 18.8061 12C18.8061 10.176 19.3181 8.664 20.3421 7.464C21.3661 6.264 22.6861 5.664 24.3021 5.664C25.6781 5.664 26.7501 6.136 27.5181 7.08V6ZM23.8221 13.608C24.2221 14.04 24.7421 14.256 25.3821 14.256C26.0221 14.256 26.5341 14.04 26.9181 13.608C27.3181 13.176 27.5181 12.64 27.5181 12C27.5181 11.36 27.3181 10.824 26.9181 10.392C26.5341 9.96 26.0221 9.744 25.3821 9.744C24.7421 9.744 24.2221 9.96 23.8221 10.392C23.4381 10.824 23.2461 11.36 23.2461 12C23.2461 12.64 23.4381 13.176 23.8221 13.608ZM38.1637 8.328C38.3877 7.512 38.8277 6.88 39.4837 6.432C40.1397 5.984 40.8997 5.76 41.7637 5.76V10.56C40.8037 10.432 39.9637 10.624 39.2437 11.136C38.5237 11.632 38.1637 12.432 38.1637 13.536V18H33.7237V6H38.1637V8.328ZM50.8599 6H55.2999V18H50.8599V16.92C50.0919 17.864 49.0199 18.336 47.6439 18.336C46.0279 18.336 44.7079 17.736 43.6839 16.536C42.6599 15.336 42.1479 13.824 42.1479 12C42.1479 10.176 42.6599 8.664 43.6839 7.464C44.7079 6.264 46.0279 5.664 47.6439 5.664C49.0199 5.664 50.0919 6.136 50.8599 7.08V6ZM47.1639 13.608C47.5639 14.04 48.0839 14.256 48.7239 14.256C49.3639 14.256 49.8759 14.04 50.2599 13.608C50.6599 13.176 50.8599 12.64 50.8599 12C50.8599 11.36 50.6599 10.824 50.2599 10.392C49.8759 9.96 49.3639 9.744 48.7239 9.744C48.0839 9.744 47.5639 9.96 47.1639 10.392C46.7799 10.824 46.5879 11.36 46.5879 12C46.5879 12.64 46.7799 13.176 47.1639 13.608ZM65.3708 6H69.8108V17.64C69.8108 18.6 69.6268 19.448 69.2588 20.184C68.9068 20.92 68.4268 21.496 67.8188 21.912C67.2108 22.344 66.5388 22.664 65.8028 22.872C65.0828 23.08 64.3228 23.184 63.5228 23.184C62.1148 23.184 60.8668 22.928 59.7788 22.416C58.6908 21.904 57.8828 21.184 57.3548 20.256L60.9548 18.168C61.5308 18.952 62.3068 19.344 63.2828 19.344C63.8428 19.344 64.3308 19.2 64.7468 18.912C65.1628 18.64 65.3708 18.216 65.3708 17.64V16.44C64.6028 17.384 63.5308 17.856 62.1548 17.856C60.5548 17.856 59.2348 17.272 58.1948 16.104C57.1708 14.936 56.6588 13.488 56.6588 11.76C56.6588 10.032 57.1708 8.584 58.1948 7.416C59.2348 6.248 60.5548 5.664 62.1548 5.664C63.5308 5.664 64.6028 6.136 65.3708 7.08V6ZM61.6748 13.296C62.0748 13.712 62.5948 13.92 63.2348 13.92C63.8748 13.92 64.3868 13.712 64.7708 13.296C65.1708 12.88 65.3708 12.368 65.3708 11.76C65.3708 11.152 65.1708 10.64 64.7708 10.224C64.3868 9.808 63.8748 9.6 63.2348 9.6C62.5948 9.6 62.0748 9.808 61.6748 10.224C61.2908 10.64 61.0988 11.152 61.0988 11.76C61.0988 12.368 61.2908 12.88 61.6748 13.296ZM75.4856 13.512C75.8696 14.312 76.6856 14.712 77.9336 14.712C78.6696 14.712 79.3496 14.456 79.9736 13.944L82.8776 16.392C81.6776 17.688 79.9816 18.336 77.7896 18.336C75.7416 18.336 74.0936 17.744 72.8456 16.56C71.6136 15.36 70.9976 13.856 70.9976 12.048C70.9976 10.224 71.5976 8.704 72.7976 7.488C74.0136 6.272 75.5416 5.664 77.3816 5.664C79.2056 5.664 80.7016 6.264 81.8696 7.464C83.0536 8.648 83.6456 10.144 83.6456 11.952C83.6456 12.48 83.5816 13 83.4536 13.512H75.4856ZM75.4136 10.656H79.4456C79.1736 9.696 78.5256 9.216 77.5016 9.216C76.4616 9.216 75.7656 9.696 75.4136 10.656Z" fill="white"/>
<path d="M101.758 8.088V10.08C101.758 12.48 100.982 14.464 99.4303 16.032C97.8943 17.6 95.8703 18.384 93.3583 18.384C90.7343 18.384 88.5903 17.552 86.9263 15.888C85.2623 14.208 84.4303 12.12 84.4303 9.624C84.4303 7.128 85.2623 5.04 86.9263 3.36C88.5903 1.664 90.6703 0.816 93.1663 0.816C94.7343 0.816 96.1663 1.168 97.4623 1.872C98.7743 2.576 99.8063 3.528 100.558 4.728L96.4783 7.056C95.8063 6.032 94.7343 5.52 93.2623 5.52C92.0623 5.52 91.0863 5.904 90.3343 6.672C89.5983 7.44 89.2303 8.432 89.2303 9.648C89.2303 10.8 89.5743 11.808 90.2623 12.672C90.9503 13.52 92.0143 13.944 93.4543 13.944C95.1183 13.944 96.2303 13.352 96.7903 12.168H93.2143V8.088H101.758ZM109.092 18.336C107.3 18.336 105.772 17.728 104.508 16.512C103.26 15.296 102.636 13.792 102.636 12C102.636 10.208 103.26 8.704 104.508 7.488C105.756 6.272 107.284 5.664 109.092 5.664C110.9 5.664 112.428 6.272 113.676 7.488C114.924 8.704 115.548 10.208 115.548 12C115.548 13.792 114.924 15.296 113.676 16.512C112.428 17.728 110.9 18.336 109.092 18.336ZM107.628 13.536C108.012 13.92 108.5 14.112 109.092 14.112C109.684 14.112 110.164 13.92 110.532 13.536C110.916 13.136 111.108 12.624 111.108 12C111.108 11.376 110.916 10.872 110.532 10.488C110.164 10.088 109.684 9.888 109.092 9.888C108.5 9.888 108.012 10.088 107.628 10.488C107.26 10.872 107.076 11.376 107.076 12C107.076 12.624 107.26 13.136 107.628 13.536ZM120.404 17.568C119.876 18.096 119.228 18.36 118.46 18.36C117.692 18.36 117.036 18.096 116.492 17.568C115.964 17.024 115.7 16.368 115.7 15.6C115.7 14.832 115.964 14.184 116.492 13.656C117.036 13.112 117.692 12.84 118.46 12.84C119.228 12.84 119.876 13.112 120.404 13.656C120.948 14.184 121.22 14.832 121.22 15.6C121.22 16.368 120.948 17.024 120.404 17.568Z" fill="#65F473"/>
</svg>
