<svg width="17" height="15" viewBox="0 0 17 15" fill="none" xmlns="http://www.w3.org/2000/svg">
<path fill-rule="evenodd" clip-rule="evenodd" d="M1.97724 0L0.878052 1.08126L15.0227 15L16.1219 13.9184L1.97724 0V0Z" fill="black" fill-opacity="0.6"/>
<path d="M3.20032 3.36629L4.23492 4.38434C3.10236 5.33323 2.20051 6.51437 1.61773 7.54778L1.61595 7.55127C3.23901 10.2216 5.81431 12.7452 9.06468 12.3625C9.94204 12.2591 10.7605 11.964 11.5083 11.5417L12.5557 12.572C11.098 13.4926 9.42705 13.9801 7.6166 13.7392C4.35204 13.3047 1.68268 10.67 0 7.57572C0.790054 6.01146 1.87079 4.51495 3.20032 3.36629V3.36629ZM5.55345 1.85756C6.4663 1.45733 7.45405 1.22194 8.50887 1.20517C8.56744 1.20483 9.26273 1.23731 9.5779 1.28829C9.77559 1.32042 9.97257 1.36059 10.1667 1.41053C13.2634 2.20436 15.5576 4.78038 17 7.43428C16.3949 8.63672 15.6023 9.81018 14.6572 10.8157L13.6538 9.82834C14.3519 9.08795 14.934 8.26373 15.3823 7.46431C15.3823 7.46431 14.9315 6.75116 14.5897 6.30343C14.37 6.01565 14.139 5.73626 13.8962 5.46699C13.7046 5.25465 12.9603 4.53346 12.7832 4.38329C11.5949 3.37782 10.1997 2.58888 8.52626 2.60215C7.87818 2.61228 7.25494 2.738 6.66328 2.94965L5.55345 1.85756V1.85756Z" fill="black" fill-opacity="0.6"/>
<path fill-rule="evenodd" clip-rule="evenodd" d="M6.01656 6.13799L6.81524 6.92357L9.88946 9.94859C9.47846 10.1756 9.00428 10.3048 8.49994 10.3048C6.92942 10.3048 5.65454 9.05033 5.65454 7.50493C5.65454 7.00865 5.78622 6.54241 6.01656 6.13799ZM8.44741 4.70574C8.4648 4.7054 8.48255 4.70505 8.49994 4.70505C10.0705 4.70505 11.3453 5.95988 11.3453 7.50493C11.3453 7.52239 11.3453 7.5395 11.345 7.55662L8.44741 4.70574Z" fill="black" fill-opacity="0.6"/>
</svg>
