<svg width="24" height="24" viewBox="0 0 24 24" fill="none" xmlns="http://www.w3.org/2000/svg">
<path d="M3 23H9.5L10.1076 19.3545C10.362 17.828 11.1151 16.4288 12.2492 15.3758L16.9095 11.0483C17.3019 10.684 17.7348 10.3659 18.1997 10.1002L21 8.5V1H11C6.58172 1 3 4.58172 3 9V23Z" fill="#E6F4E9"/>
<path d="M9.75 22.5H5.25C4.42309 22.5 3.75 21.8273 3.75 21V6.18017C3.75 5.78686 3.9104 5.40051 4.19018 5.12035L7.37036 1.94018C7.65015 1.6604 8.03614 1.5 8.43018 1.5H18.75C19.5769 1.5 20.25 2.17273 20.25 3V9C20.25 9.41419 20.5855 9.75 21 9.75C21.4146 9.75 21.75 9.41419 21.75 9V3C21.75 1.34582 20.4045 0 18.75 0H8.43017C7.64135 0 6.86791 0.320798 6.30981 0.879637L3.12964 4.05982C2.5708 4.61939 2.25 5.3921 2.25 6.18018V21C2.25 22.6542 3.59546 24 5.25 24H9.75C10.1645 24 10.5 23.6642 10.5 23.25C10.5 22.8358 10.1645 22.5 9.75 22.5Z" fill="#1C9837"/>
<path d="M23.1209 13.5754L22.0603 12.5149C20.9265 11.3804 18.9497 11.3818 17.8181 12.5149L12.5147 17.818C11.9478 18.3845 11.6357 19.1382 11.6357 19.9395C11.6357 20.7407 11.9478 21.494 12.5147 22.0605L13.5752 23.1211C14.1421 23.688 14.895 24 15.6963 24C16.4983 24 17.2512 23.688 17.8174 23.1211L20.4695 20.4697C21.3469 19.5926 21.3469 18.1648 20.4695 17.2877C19.6199 16.437 18.136 16.4385 17.2878 17.2877L15.166 19.4092C14.873 19.7018 14.873 20.1767 15.166 20.4697C15.459 20.7627 15.9336 20.7627 16.2266 20.4697L18.3491 18.3479C18.6318 18.0659 19.1247 18.0641 19.4089 18.3483C19.7012 18.6409 19.7012 19.1166 19.4089 19.4092L16.7568 22.0605C16.1899 22.6274 15.2026 22.6274 14.6357 22.0605L13.5752 21C13.2917 20.7165 13.1357 20.3401 13.1357 19.9394C13.1357 19.5388 13.2917 19.162 13.5752 18.8785L18.8787 13.5754C19.4456 13.0085 20.4329 13.0085 20.9998 13.5754L22.0603 14.636C22.3437 14.9194 22.4998 15.2959 22.4998 15.6965C22.4998 16.0975 22.3437 16.474 22.0603 16.7574C21.7673 17.05 21.7673 17.525 22.0603 17.818C22.3533 18.1109 22.8279 18.1109 23.1208 17.818C23.6877 17.2515 23.9998 16.4982 23.9998 15.6965C23.9998 14.8953 23.6877 14.142 23.1209 13.5754Z" fill="#1C9837"/>
<path d="M16.5 7.5C16.5 7.08581 16.1645 6.75 15.75 6.75H8.25C7.83545 6.75 7.5 7.08581 7.5 7.5C7.5 7.91419 7.83545 8.25 8.25 8.25H15.75C16.1645 8.25 16.5 7.91419 16.5 7.5Z" fill="#1C9837"/>
<path d="M8.25 10.5C7.83545 10.5 7.5 10.8358 7.5 11.25C7.5 11.6642 7.83545 12 8.25 12H12C12.4145 12 12.75 11.6642 12.75 11.25C12.75 10.8358 12.4145 10.5 12 10.5H8.25Z" fill="#1C9837"/>
</svg>
