<svg width="24" height="24" viewBox="0 0 24 24" fill="none" xmlns="http://www.w3.org/2000/svg">
<rect width="24" height="24" rx="6" fill="#2042E9"/>
<path d="M4.51904 10.0869L6.31004 12.2873C6.44413 12.452 6.69172 12.4634 6.84032 12.3116L8.99295 10.1133" stroke="white" stroke-width="1.7" stroke-linecap="round"/>
<path fill-rule="evenodd" clip-rule="evenodd" d="M17.8098 12C17.8098 14.9271 15.4369 17.3 12.5098 17.3C11.1462 17.3 9.90291 16.7851 8.96372 15.939C8.7699 15.7644 8.5241 15.6531 8.26324 15.6504C7.50567 15.6427 7.06198 16.4603 7.60219 16.9915C8.86547 18.2337 10.5981 19 12.5098 19C16.3758 19 19.5098 15.866 19.5098 12C19.5098 8.13401 16.3758 5 12.5098 5C8.64381 5 5.5098 8.13401 5.5098 12C5.5098 12.0815 5.57604 12.1469 5.65751 12.1477L7.04878 12.1618C7.13799 12.1627 7.20981 12.0892 7.20981 12C7.20981 9.07289 9.5827 6.7 12.5098 6.7C15.4369 6.7 17.8098 9.07289 17.8098 12Z" fill="white"/>
</svg>
