<svg width="20" height="20" viewBox="0 0 20 20" fill="none" xmlns="http://www.w3.org/2000/svg">
<g clip-path="url(#clip0_703_1262)">
<circle cx="10" cy="10" r="10" fill="#E84949"/>
<g clip-path="url(#clip1_703_1262)">
<path fill-rule="evenodd" clip-rule="evenodd" d="M14.1142 7.24984C14.5047 6.85932 14.5047 6.22616 14.1142 5.83563C13.7236 5.44511 13.0905 5.44511 12.7 5.83563L10 8.53557L7.30006 5.83562C6.90954 5.44509 6.27637 5.44509 5.88585 5.83562C5.49532 6.22614 5.49532 6.85931 5.88585 7.24983L8.5858 9.94978L5.88585 12.6497C5.49532 13.0403 5.49532 13.6734 5.88585 14.0639C6.27637 14.4545 6.90954 14.4545 7.30006 14.0639L10 11.364L12.7 14.0639C13.0905 14.4545 13.7236 14.4545 14.1142 14.0639C14.5047 13.6734 14.5047 13.0402 14.1142 12.6497L11.4142 9.94978L14.1142 7.24984Z" fill="white"/>
</g>
</g>
<defs>
<clipPath id="clip0_703_1262">
<rect width="20" height="20" fill="white"/>
</clipPath>
<clipPath id="clip1_703_1262">
<rect width="16" height="16" fill="white" transform="translate(2 2)"/>
</clipPath>
</defs>
</svg>
