<svg width="34" height="34" viewBox="0 0 34 34" fill="none" xmlns="http://www.w3.org/2000/svg">
<g clip-path="url(#clip0_1238_982)">
<path d="M5 5V13.3077H13.3077V5H5ZM15.1538 5V6.84615H17V5H15.1538ZM17 6.84615V8.69231H15.1538V12.3846H17V10.5385H18.8462V6.84615H17ZM17 12.3846V15.1538H8.69231V17H6.84615V18.8462H10.5385V17H12.3846V18.8462H17V17H18.8462V18.8462H21.6154V17H23.4615V15.1538H18.8462V12.3846H17ZM23.4615 17V18.8462H29V17H27.1538V15.1538H25.3077V17H23.4615ZM6.84615 17V15.1538H5V17H6.84615ZM20.6923 5V13.3077H29V5H20.6923ZM6.84615 6.84615H11.4615V11.4615H6.84615V6.84615ZM22.5385 6.84615H27.1538V11.4615H22.5385V6.84615ZM7.76923 7.76923V10.5385H10.5385V7.76923H7.76923ZM23.4615 7.76923V10.5385H26.2308V7.76923H23.4615ZM15.1538 19.7692V21.6154H17V19.7692H15.1538ZM17 21.6154V23.4615H15.1538V27.1538H17V25.3077H20.6923V23.4615H22.5385V21.6154H24.3846V23.4615H22.5385V25.3077H20.6923V29H22.5385V27.1538H24.3846V25.3077H25.3077V27.1538H24.3846V29H26.2308V27.1538H27.1538V25.3077H29V21.6154H27.1538V19.7692H20.6923V21.6154H17ZM27.1538 27.1538V29H29V27.1538H27.1538ZM17 27.1538V29H18.8462V27.1538H17ZM5 20.6923V29H13.3077V20.6923H5ZM6.84615 22.5385H11.4615V27.1538H6.84615V22.5385ZM7.76923 23.4615V26.2308H10.5385V23.4615H7.76923Z" fill="black"/>
<path d="M1 9V5C1 2.79086 2.79086 1 5 1H9" stroke="black" stroke-width="2" stroke-linecap="round"/>
<path d="M33 9V5C33 2.79086 31.2091 1 29 1H25" stroke="black" stroke-width="2" stroke-linecap="round"/>
<path d="M1 25V29C1 31.2091 2.79086 33 5 33H9" stroke="black" stroke-width="2" stroke-linecap="round"/>
<path d="M33 25V29C33 31.2091 31.2091 33 29 33H25" stroke="black" stroke-width="2" stroke-linecap="round"/>
</g>
<defs>
<clipPath id="clip0_1238_982">
<rect width="34" height="34" fill="white" transform="matrix(-1 0 0 1 34 0)"/>
</clipPath>
</defs>
</svg>
