<svg width="24" height="24" viewBox="0 0 24 24" fill="none" xmlns="http://www.w3.org/2000/svg">
<path d="M9.8713 5.64704C9.83711 5.64778 9.80301 5.65101 9.76928 5.65669H7.76468C7.03117 5.65669 6.24334 5.96336 5.53123 6.68105C4.84749 7.37014 4.1509 8.43221 3.26882 10.0753C2.19052 10.4735 1.41174 11.5033 1.41174 12.7155V14.1273C1.41174 15.2969 2.35974 16.2449 3.52939 16.2449H3.56524C3.73987 17.4346 4.76473 18.3626 5.99998 18.3626C7.23523 18.3626 8.26009 17.4346 8.43472 16.2449H16.2711C16.4457 17.4346 17.4706 18.3626 18.7059 18.3626C19.9411 18.3626 20.966 17.4346 21.1406 16.2449H21.1764C21.9564 16.2449 22.5882 15.6132 22.5882 14.8332V13.4214C22.1986 13.4214 21.8823 13.1052 21.8823 12.7155C21.8823 12.4649 22.0204 12.2545 22.2173 12.1296C21.636 11.3765 20.2553 10.1503 17.4623 9.9361C16.414 8.34419 15.5806 7.30746 14.8704 6.66313C14.065 5.93241 13.3252 5.65669 12.7059 5.65669H9.99125C9.95161 5.65007 9.91148 5.64684 9.8713 5.64704ZM7.76468 7.06846H9.17645V9.89199H4.98252C5.61267 8.80001 6.12427 8.08754 6.53353 7.67507C7.06112 7.14335 7.34126 7.06846 7.76468 7.06846ZM10.5882 7.06846H12.7059C12.971 7.06846 13.2795 7.12541 13.9219 7.70816C14.3819 8.12549 14.9814 8.82682 15.7307 9.89199H10.5882V7.06846ZM5.99998 14.8332C6.59311 14.8332 7.0588 15.2989 7.0588 15.892C7.0588 16.4851 6.59311 16.9508 5.99998 16.9508C5.40685 16.9508 4.94115 16.4851 4.94115 15.892C4.94115 15.2989 5.40685 14.8332 5.99998 14.8332ZM18.7059 14.8332C19.299 14.8332 19.7647 15.2989 19.7647 15.892C19.7647 16.4851 19.299 16.9508 18.7059 16.9508C18.1127 16.9508 17.647 16.4851 17.647 15.892C17.647 15.2989 18.1127 14.8332 18.7059 14.8332Z" fill="#2042E9"/>
</svg>
