<svg width="19" height="21" viewBox="0 0 19 21" fill="none" xmlns="http://www.w3.org/2000/svg">
<path fill-rule="evenodd" clip-rule="evenodd" d="M11.7346 1.33039C10.6719 -0.443462 8.10157 -0.443464 7.03895 1.33039L6.34681 2.48578C5.8605 3.29758 4.98933 3.80055 4.04313 3.81581L2.69647 3.83752C0.628954 3.87086 -0.656228 6.09685 0.34866 7.90404L1.00319 9.08114C1.46307 9.9082 1.46307 10.9141 1.00319 11.7412L0.348661 12.9183C-0.656227 14.7255 0.628951 16.9515 2.69647 16.9848L4.04313 17.0065C4.98932 17.0218 5.8605 17.5248 6.34681 18.3366L7.03895 19.492C8.10157 21.2658 10.6719 21.2658 11.7346 19.492L12.4267 18.3366C12.913 17.5248 13.7842 17.0218 14.7304 17.0065L16.077 16.9848C18.1446 16.9515 19.4297 14.7255 18.4248 12.9183L17.7703 11.7412C17.3104 10.9141 17.3104 9.9082 17.7703 9.08114L18.4248 7.90404C19.4297 6.09686 18.1446 3.87086 16.077 3.83752L14.7304 3.81581C13.7842 3.80055 12.913 3.29758 12.4267 2.48578L11.7346 1.33039ZM9.5 15.5C12.2614 15.5 14.5 13.2614 14.5 10.5C14.5 7.73858 12.2614 5.5 9.5 5.5C6.73858 5.5 4.5 7.73858 4.5 10.5C4.5 13.2614 6.73858 15.5 9.5 15.5Z" fill="#ADADAD"/>
</svg>
