<svg width="32" height="32" viewBox="0 0 32 32" fill="none" xmlns="http://www.w3.org/2000/svg">
<path fill-rule="evenodd" clip-rule="evenodd" d="M25.902 12.0633C26.0735 12.4961 26.4292 12.8371 26.8813 12.9484L28.9829 13.4661C29.5802 13.6132 30 14.1489 30 14.7641V17.2358C30 17.851 29.5801 18.3868 28.9828 18.5339L26.8813 19.0514C26.4292 19.1627 26.0735 19.5037 25.902 19.9366C25.8638 20.0331 25.8242 20.1289 25.7832 20.2241C25.5998 20.6501 25.6094 21.1405 25.848 21.5382L26.9367 23.3528C27.2523 23.8788 27.1694 24.5521 26.7357 24.9858L24.9859 26.7358C24.5521 27.1696 23.8787 27.2525 23.3527 26.9368L21.5382 25.848C21.1405 25.6094 20.6501 25.5999 20.2241 25.7833C20.129 25.8242 20.0333 25.8638 19.9369 25.902C19.5039 26.0736 19.1627 26.4293 19.0513 26.8816L18.5339 28.9828C18.3868 29.5801 17.851 30 17.2358 30H14.7641C14.1489 30 13.6132 29.5802 13.4661 28.9829L12.9485 26.8815C12.8371 26.4293 12.496 26.0736 12.0631 25.902C11.9666 25.8638 11.8707 25.8242 11.7756 25.7832C11.3497 25.5998 10.8593 25.6094 10.4617 25.848L8.6471 26.9368C8.12106 27.2525 7.4477 27.1696 7.01392 26.7358L5.26414 24.9859C4.83038 24.5521 4.74752 23.8788 5.06314 23.3527L6.15196 21.5382C6.39057 21.1405 6.40015 20.65 6.21674 20.2241C6.17578 20.129 6.13619 20.0332 6.09797 19.9367C5.92646 19.5039 5.57081 19.1629 5.11875 19.0516L3.01715 18.5339C2.41982 18.3868 2 17.8511 2 17.2359V14.7641C2 14.1489 2.41982 13.6132 3.01714 13.4661L5.11875 12.9484C5.57081 12.8371 5.92646 12.4961 6.09796 12.0633C6.13622 11.9667 6.17586 11.8708 6.21688 11.7755C6.40024 11.3497 6.39062 10.8593 6.15208 10.4618L5.06331 8.64706C4.74771 8.12103 4.8306 7.44772 5.26437 7.01395L7.01413 5.26419C7.44791 4.83041 8.12126 4.74752 8.64729 5.06316L10.462 6.15203C10.8595 6.3906 11.3499 6.40022 11.7758 6.21683C11.8709 6.17585 11.9668 6.13624 12.0632 6.09801C12.4962 5.92643 12.8373 5.5707 12.9486 5.1185L13.4661 3.01721C13.6132 2.41985 14.149 2 14.7642 2H17.2358C17.851 2 18.3868 2.41985 18.5339 3.01721L19.0514 5.1185C19.1627 5.5707 19.5038 5.92643 19.9368 6.09801C20.0332 6.13624 20.1291 6.17586 20.2243 6.21686C20.6501 6.40024 21.1404 6.39064 21.538 6.15211L23.353 5.06327C23.879 4.74769 24.5523 4.83059 24.986 5.26435L26.7358 7.01413C27.1696 7.44791 27.2525 8.12126 26.9368 8.64729L25.848 10.4618C25.6094 10.8595 25.5999 11.35 25.7833 11.7759C25.8242 11.871 25.8638 11.9668 25.902 12.0633ZM16 10.2578C12.8337 10.2578 10.2578 12.8337 10.2578 16C10.2578 19.1663 12.8337 21.7422 16 21.7422C19.1663 21.7422 21.7422 19.1663 21.7422 16C21.7422 12.8337 19.1663 10.2578 16 10.2578Z" fill="#ADADAD"/>
</svg>
