<svg width="24" height="24" viewBox="0 0 24 24" fill="none" xmlns="http://www.w3.org/2000/svg">
<path d="M18.0733 7H14.0642C14.0642 7 13.597 7 13.0183 7H11.6238C11.0451 7 10.578 7 10.578 7H6.5688C5.70073 7 5 7.61706 5 8.48164V15.8062C5 16.6708 5.70422 17.375 6.5688 17.375H18.0733C18.9414 17.375 19.6421 16.6708 19.6421 15.8062V8.48164C19.6421 7.61706 18.9414 7 18.0733 7ZM8.83485 10.0504C9.41356 10.0504 9.88071 10.5211 9.88071 11.0963C9.88071 11.675 9.41356 12.1422 8.83485 12.1422C8.25613 12.1422 7.78898 11.675 7.78898 11.0963C7.78898 10.5211 8.25613 10.0504 8.83485 10.0504ZM10.578 13.7075L10.571 13.7807L10.5536 13.8888C10.3967 14.593 9.76218 14.9312 8.83485 14.9312C7.8587 14.9312 7.21027 14.5581 7.09871 13.7807L7.09173 13.704V13.3624L7.09522 13.2926C7.13008 13.0347 7.34971 12.8394 7.61467 12.8394H10.055L10.1247 12.8429C10.3827 12.8778 10.578 13.0974 10.578 13.3624V13.7075ZM17.0972 14.2269L17.0275 14.2304H13.5447L13.4715 14.2269C13.217 14.1921 13.0218 13.9724 13.0218 13.7075C13.0218 13.4425 13.217 13.2264 13.4715 13.1915L13.5447 13.1846H17.0275L17.0972 13.1915C17.3552 13.2264 17.5504 13.4425 17.5504 13.7075C17.5504 13.9724 17.3552 14.1921 17.0972 14.2269ZM17.0972 11.7901L17.0275 11.7936H13.5412L13.4715 11.7901C13.217 11.7552 13.0218 11.5356 13.0218 11.2706C13.0218 11.0057 13.217 10.786 13.4715 10.7512L13.5447 10.7477H17.0275L17.0972 10.7512C17.3552 10.786 17.5504 11.0057 17.5504 11.2706C17.5504 11.5356 17.3552 11.7552 17.0972 11.7901Z" fill="#2042E9"/>
</svg>
