<svg width="69" height="72" viewBox="0 0 69 72" fill="none" xmlns="http://www.w3.org/2000/svg">
<path d="M57.557 10.3573C57.6066 6.71959 55.8939 3.47282 53.2147 1.41481C52.8198 1.11117 52.2463 1.39497 52.2463 1.89111L52.2344 9.59921L46.4612 13.1318L40.7 9.57936L40.7119 1.87127C40.7119 1.37711 40.1403 1.08934 39.7454 1.38901C37.1317 3.38351 35.423 6.50724 35.3734 10.0477C35.3099 14.6539 38.0645 18.6449 42.0416 20.3755L41.992 51.704C38.1042 53.3849 35.3535 57.2211 35.292 61.7321C35.2404 65.3698 36.9551 68.6166 39.6343 70.6746C40.0292 70.9762 40.6028 70.6944 40.6028 70.1963L40.6147 62.4882L46.3878 58.9556L52.149 62.5061L52.1371 70.2141C52.1371 70.7103 52.7087 70.9981 53.1036 70.6944C55.7173 68.7039 57.426 65.5802 57.4756 62.0377C57.5391 57.4295 54.7845 53.4405 50.8055 51.7099L50.8551 20.3814C54.7429 18.7005 57.4935 14.8663 57.557 10.3553V10.3573Z" fill="#3D3D3D"/>
<path d="M24.1327 33.166L20.6676 33.1601L20.6994 12.5443L22.2196 10.1469L20.3997 1.00595L16.7342 1L14.8866 10.137L16.3988 12.5383L16.3671 33.1541L12.902 33.1482C12.4316 33.1482 12.0506 33.5808 12.0486 34.1166V35.7797C12.0446 36.3155 12.4257 36.7522 12.896 36.7522H13.0885C12.4277 37.8774 12.0407 39.2289 12.0387 40.6836L12.001 63.8833C11.995 67.8068 14.7814 70.994 18.2246 71H18.689C22.1323 71.006 24.9305 67.8286 24.9365 63.9051L24.9722 40.7074C24.9742 39.2507 24.5911 37.8992 23.9342 36.772H24.1268C24.5971 36.772 24.9801 36.3374 24.9801 35.8015V34.1385C24.9841 33.6026 24.6031 33.168 24.1327 33.166Z" fill="#3D3D3D"/>
</svg>
