<svg width="24" height="24" viewBox="0 0 24 24" fill="none" xmlns="http://www.w3.org/2000/svg">
<rect width="24" height="24" rx="6" fill="#2042E9"/>
<circle cx="12" cy="12" r="7" fill="white"/>
<path d="M15.2773 12C15.2773 13.8603 14.8649 15.5177 14.2251 16.6907C13.5741 17.8842 12.7637 18.4591 12.0001 18.4591C11.2364 18.4591 10.426 17.8842 9.77507 16.6907C9.13525 15.5177 8.72279 13.8603 8.72279 12C8.72279 10.1397 9.13525 8.48226 9.77507 7.30927C10.426 6.11582 11.2364 5.54091 12.0001 5.54091C12.7637 5.54091 13.5741 6.11582 14.2251 7.30927C14.8649 8.48226 15.2773 10.1397 15.2773 12Z" stroke="#2042E9" stroke-width="1.08182"/>
<path d="M4.36377 10.0911H19.0001" stroke="#2042E9" stroke-width="1.08182"/>
<path d="M4.36377 14.5457H19.6365" stroke="#2042E9" stroke-width="1.08182"/>
</svg>
