<svg width="24" height="24" viewBox="0 0 24 24" fill="none" xmlns="http://www.w3.org/2000/svg">
<rect width="24" height="24" rx="6" fill="#2042E9"/>
<path d="M13.4303 13.1923C13.1515 13.5408 12.7608 13.9231 12.3145 13.9231H11.2717C10.5946 13.9231 10.0263 13.3429 10.3534 12.75C10.5713 12.3654 10.8277 12.0321 11.1226 11.75C11.4303 11.4551 11.7316 11.1731 12.0264 10.9038C12.3341 10.6346 12.5905 10.3462 12.7957 10.0385C13.0136 9.73077 13.1226 9.42308 13.1226 9.11539C13.1226 8.37179 12.6482 8 11.6995 8C11.3063 8 10.9549 8.09772 10.6455 8.29315C9.8811 8.77585 8.93427 9.22134 8.1497 8.77221C7.47829 8.38785 7.18448 7.53757 7.66531 6.93149C8.00731 6.5004 8.41615 6.13221 8.89183 5.82692C9.76362 5.27564 10.738 5 11.8149 5C12.9944 5 14.02 5.34615 14.8918 6.03846C15.7636 6.73077 16.1995 7.66667 16.1995 8.84615C16.1995 9.3718 16.0905 9.86538 15.8726 10.3269C15.6675 10.7885 15.4111 11.1795 15.1034 11.5C14.8085 11.8205 14.5072 12.1154 14.1995 12.3846C13.9046 12.6538 13.6482 12.9231 13.4303 13.1923ZM13.4111 17.1731C13.4111 17.6731 13.2316 18.1026 12.8726 18.4615C12.5136 18.8205 12.0841 19 11.5841 19C11.0841 19 10.6546 18.8205 10.2957 18.4615C9.9367 18.1026 9.75721 17.6731 9.75721 17.1731C9.75721 16.6731 9.9367 16.2436 10.2957 15.8846C10.6546 15.5256 11.0841 15.3462 11.5841 15.3462C12.0841 15.3462 12.5136 15.5256 12.8726 15.8846C13.2316 16.2436 13.4111 16.6731 13.4111 17.1731Z" fill="white"/>
</svg>
