<svg width="20" height="20" viewBox="0 0 20 20" fill="none" xmlns="http://www.w3.org/2000/svg">
<path fill-rule="evenodd" clip-rule="evenodd" d="M18.5146 3.87909C18.8445 3.54917 19.3794 3.54917 19.7093 3.87909C19.8393 4.00897 19.9232 4.17772 19.949 4.3596C20.166 5.88663 19.6881 7.49326 18.5135 8.66787C16.4853 10.6961 13.1683 10.65 11.1987 8.52959C9.33017 6.51799 9.39271 3.42081 11.3365 1.48183C12.5116 0.309602 14.1176 -0.166647 15.6438 0.051321C15.8244 0.0771413 15.9917 0.161438 16.1207 0.290461L16.1207 0.2905C16.4507 0.620422 16.4507 1.1553 16.1207 1.48523L14.3237 3.28229C14.1357 3.47034 14.0471 3.73589 14.0847 3.99913L14.2346 5.04838C14.2877 5.42006 14.5798 5.71213 14.9515 5.76522L16.0007 5.9151C16.264 5.95272 16.5295 5.86416 16.7175 5.67616L18.5146 3.87909ZM11.6483 10.398C11.9715 10.5964 12.0252 11.0438 11.7571 11.3119L8.31948 14.7495C7.98784 15.0812 7.80038 15.5329 7.81139 16.0018C7.81213 16.0324 7.81249 16.0631 7.81249 16.0938C7.81249 18.2696 6.03346 20.03 3.85062 19.9996C1.74671 19.9703 0.0296845 18.2533 0.000387662 16.1494C-0.0300029 13.9665 1.73035 12.1875 3.90624 12.1875C3.93694 12.1875 3.96761 12.1879 3.99819 12.1886C4.4671 12.1997 4.91886 12.0122 5.2505 11.6805L8.68393 8.24709C8.94994 7.98107 9.39615 8.02974 9.59416 8.34959C9.80639 8.69248 10.055 9.02005 10.3403 9.32712C10.7284 9.74498 11.1695 10.1041 11.6483 10.398ZM3.07761 16.9224C3.53523 17.38 4.27722 17.38 4.73487 16.9224C5.19253 16.4647 5.19253 15.7228 4.73487 15.2651C4.27726 14.8075 3.53527 14.8075 3.07761 15.2651C2.61995 15.7227 2.61995 16.4647 3.07761 16.9224Z" fill="#ADADAD"/>
</svg>
