<svg width="24" height="24" viewBox="0 0 24 24" fill="none" xmlns="http://www.w3.org/2000/svg">
<rect width="24" height="24" rx="6" fill="#2042E9"/>
<path d="M4.86715 6.39117V17.5205C4.86715 18.923 6.00408 20.0599 7.40655 20.0599H15.7536C17.156 20.0599 18.293 18.923 18.293 17.5205V10.4453C18.293 9.77184 18.0254 9.12594 17.5492 8.64971L13.495 4.59554C13.0188 4.11931 12.3729 3.85177 11.6994 3.85177H7.40655C6.00408 3.85177 4.86715 4.98869 4.86715 6.39117Z" fill="white" stroke="#2042E9" stroke-width="2.29646"/>
<path d="M12.2756 5V8.47792C12.2756 9.24625 12.8985 9.86909 13.6668 9.86909H17.1447" stroke="#2042E9" stroke-width="1.18249"/>
<path d="M14.4614 16.5387H16.923M19.3845 16.5387H16.923M16.923 16.5387V14.0771M16.923 16.5387V19.0002" stroke="#2042E9" stroke-width="4.92308" stroke-linecap="round"/>
<path d="M14.4614 16.5387H16.923M19.3845 16.5387H16.923M16.923 16.5387V14.0771M16.923 16.5387V19.0002" stroke="white" stroke-width="1.7" stroke-linecap="round"/>
</svg>
