<svg width="375" height="405" viewBox="0 0 375 405" fill="none" xmlns="http://www.w3.org/2000/svg">
<path d="M75.2146 77.5545C75.2146 61.2595 88.4244 48.0497 104.719 48.0497H270.178C286.473 48.0497 299.683 61.2594 299.683 77.5545V400.95H75.2146V77.5545Z" fill="white"/>
<path d="M96.2184 73.8303H101.148V74.9796C101.148 76.3736 100.7 77.5183 99.8049 78.4138C98.9186 79.3185 97.7508 79.7709 96.3014 79.7709C94.7874 79.7709 93.5504 79.2908 92.5903 78.3307C91.6302 77.3522 91.1501 76.1474 91.1501 74.7165C91.1501 73.2856 91.6302 72.0808 92.5903 71.1023C93.5412 70.1237 94.7413 69.6344 96.1907 69.6344C97.0861 69.6344 97.9078 69.8375 98.6555 70.2437C99.4125 70.6407 100.013 71.19 100.456 71.8916L98.1016 73.2348C97.7139 72.644 97.0954 72.3486 96.2461 72.3486C95.5537 72.3486 94.9905 72.5701 94.5567 73.0133C94.132 73.4471 93.9197 74.0195 93.9197 74.7304C93.9197 75.4043 94.1181 75.9859 94.5151 76.4752C94.9213 76.9644 95.5352 77.2091 96.3568 77.2091C97.3169 77.2091 97.9585 76.8675 98.2817 76.1844H96.2184V73.8303ZM106.681 73.2487V72.6255H109.243V79.5493H106.681V78.9262C106.238 79.4708 105.62 79.7432 104.826 79.7432C103.893 79.7432 103.132 79.397 102.541 78.7046C101.95 78.0215 101.655 77.1491 101.655 76.0874C101.655 75.0258 101.95 74.1534 102.541 73.4702C103.132 72.7778 103.893 72.4317 104.826 72.4317C105.62 72.4317 106.238 72.704 106.681 73.2487ZM104.549 77.0152C104.789 77.2645 105.089 77.3891 105.449 77.3891C105.818 77.3891 106.114 77.2645 106.335 77.0152C106.566 76.766 106.681 76.4567 106.681 76.0874C106.681 75.7181 106.566 75.4089 106.335 75.1596C106.114 74.9104 105.818 74.7857 105.449 74.7857C105.089 74.7857 104.789 74.9104 104.549 75.1596C104.327 75.4089 104.217 75.7181 104.217 76.0874C104.217 76.4567 104.327 76.766 104.549 77.0152ZM112.824 72.6255V73.9687C112.953 73.5072 113.202 73.1471 113.572 72.8886C113.95 72.6209 114.393 72.487 114.901 72.487V75.2566C114.347 75.1827 113.862 75.2935 113.447 75.5889C113.032 75.8843 112.824 76.3459 112.824 76.9737V79.5493H110.262V72.6255H112.824ZM120.149 73.2487V72.6255H122.711V79.5493H120.149V78.9262C119.706 79.4708 119.088 79.7432 118.294 79.7432C117.361 79.7432 116.6 79.397 116.009 78.7046C115.418 78.0215 115.123 77.1491 115.123 76.0874C115.123 75.0258 115.418 74.1534 116.009 73.4702C116.6 72.7778 117.361 72.4317 118.294 72.4317C119.088 72.4317 119.706 72.704 120.149 73.2487ZM118.017 77.0152C118.257 77.2645 118.557 77.3891 118.917 77.3891C119.286 77.3891 119.582 77.2645 119.803 77.0152C120.034 76.766 120.149 76.4567 120.149 76.0874C120.149 75.7181 120.034 75.4089 119.803 75.1596C119.582 74.9104 119.286 74.7857 118.917 74.7857C118.557 74.7857 118.257 74.9104 118.017 75.1596C117.795 75.4089 117.684 75.7181 117.684 76.0874C117.684 76.4567 117.795 76.766 118.017 77.0152ZM128.522 73.2487V72.6255H131.084V79.3416C131.084 80.0709 130.899 80.6848 130.53 81.1833C130.17 81.6818 129.727 82.0327 129.2 82.2357C128.674 82.4388 128.092 82.5404 127.455 82.5404C126.643 82.5404 125.923 82.3927 125.295 82.0973C124.668 81.8019 124.201 81.3864 123.897 80.851L125.974 79.6462C126.306 80.0986 126.754 80.3248 127.317 80.3248C127.659 80.3248 127.945 80.2371 128.176 80.0617C128.406 79.8955 128.522 79.6555 128.522 79.3416V78.6492C128.079 79.1939 127.46 79.4662 126.666 79.4662C125.734 79.4662 124.972 79.1293 124.381 78.4554C123.791 77.7814 123.495 76.946 123.495 75.9489C123.495 74.9519 123.791 74.1164 124.381 73.4425C124.972 72.7686 125.734 72.4317 126.666 72.4317C127.46 72.4317 128.079 72.704 128.522 73.2487ZM126.389 76.8352C126.629 77.0752 126.929 77.1952 127.289 77.1952C127.659 77.1952 127.954 77.0752 128.176 76.8352C128.406 76.5952 128.522 76.2997 128.522 75.9489C128.522 75.5981 128.406 75.3027 128.176 75.0627C127.954 74.8227 127.659 74.7027 127.289 74.7027C126.929 74.7027 126.629 74.8227 126.389 75.0627C126.168 75.3027 126.057 75.5981 126.057 75.9489C126.057 76.2997 126.168 76.5952 126.389 76.8352ZM138.955 76.9598H134.358C134.579 77.4214 135.05 77.6522 135.77 77.6522C136.186 77.6522 136.578 77.5045 136.947 77.2091L138.623 78.6215C137.931 79.3693 136.952 79.7432 135.687 79.7432C134.515 79.7432 133.564 79.4016 132.835 78.7185C132.124 78.0261 131.768 77.1583 131.768 76.1151C131.768 75.0627 132.115 74.1857 132.807 73.4841C133.509 72.7825 134.39 72.4317 135.452 72.4317C136.504 72.4317 137.367 72.7778 138.041 73.4702C138.724 74.1534 139.066 75.0165 139.066 76.0597C139.066 76.3459 139.029 76.6459 138.955 76.9598ZM134.316 75.312H136.643C136.495 74.758 136.121 74.4811 135.521 74.4811C134.921 74.4811 134.519 74.758 134.316 75.312Z" fill="black"/>
<path d="M144.587 73.8303H149.517V74.9796C149.517 76.3736 149.069 77.5183 148.174 78.4138C147.287 79.3185 146.119 79.7709 144.67 79.7709C143.156 79.7709 141.919 79.2908 140.959 78.3307C139.999 77.3522 139.519 76.1474 139.519 74.7165C139.519 73.2856 139.999 72.0808 140.959 71.1023C141.91 70.1237 143.11 69.6344 144.559 69.6344C145.455 69.6344 146.276 69.8375 147.024 70.2437C147.781 70.6407 148.381 71.19 148.824 71.8916L146.47 73.2348C146.083 72.644 145.464 72.3486 144.615 72.3486C143.922 72.3486 143.359 72.5701 142.925 73.0133C142.501 73.4471 142.288 74.0195 142.288 74.7304C142.288 75.4043 142.487 75.9859 142.884 76.4752C143.29 76.9644 143.904 77.2091 144.725 77.2091C145.686 77.2091 146.327 76.8675 146.65 76.1844H144.587V73.8303ZM153.748 79.7432C152.714 79.7432 151.833 79.3924 151.104 78.6908C150.383 77.9892 150.023 77.1214 150.023 76.0874C150.023 75.0535 150.383 74.1857 151.104 73.4841C151.814 72.7825 152.696 72.4317 153.748 72.4317C154.801 72.4317 155.682 72.7825 156.393 73.4841C157.113 74.1949 157.473 75.0627 157.473 76.0874C157.473 77.1214 157.113 77.9892 156.393 78.6908C155.682 79.3924 154.801 79.7432 153.748 79.7432ZM152.904 76.9737C153.125 77.1952 153.407 77.306 153.748 77.306C154.09 77.306 154.367 77.1952 154.579 76.9737C154.801 76.7336 154.912 76.4382 154.912 76.0874C154.912 75.7274 154.801 75.4366 154.579 75.215C154.376 74.9842 154.099 74.8688 153.748 74.8688C153.407 74.8688 153.125 74.9842 152.904 75.215C152.691 75.4458 152.585 75.7366 152.585 76.0874C152.585 76.4382 152.691 76.7336 152.904 76.9737ZM160.275 79.3001C159.97 79.6047 159.596 79.757 159.153 79.757C158.71 79.757 158.332 79.6047 158.018 79.3001C157.713 78.9862 157.561 78.6077 157.561 78.1646C157.561 77.7214 157.713 77.3475 158.018 77.0429C158.332 76.729 158.71 76.5721 159.153 76.5721C159.596 76.5721 159.97 76.729 160.275 77.0429C160.589 77.3475 160.746 77.7214 160.746 78.1646C160.746 78.6077 160.589 78.9862 160.275 79.3001Z" fill="#2042E9"/>
<path fill-rule="evenodd" clip-rule="evenodd" d="M282.352 74.3184C282.697 74.4032 282.939 74.7124 282.939 75.0673V76.4934C282.939 76.8484 282.697 77.1575 282.352 77.2424L281.14 77.541C280.879 77.6052 280.674 77.802 280.575 78.0517C280.553 78.1074 280.53 78.1627 280.506 78.2176C280.4 78.4634 280.406 78.7464 280.543 78.9758L281.172 80.0228C281.354 80.3263 281.306 80.7148 281.056 80.9651L280.046 81.9747C279.796 82.225 279.407 82.2729 279.104 82.0908L278.057 81.4625C277.827 81.3249 277.544 81.3194 277.299 81.4252C277.244 81.4488 277.188 81.4716 277.133 81.4937C276.883 81.5927 276.686 81.7979 276.622 82.0589L276.323 83.2712C276.238 83.6159 275.929 83.8582 275.574 83.8582H274.148C273.793 83.8582 273.484 83.6159 273.399 83.2713L273.101 82.0588C273.036 81.7979 272.84 81.5927 272.59 81.4937C272.534 81.4716 272.479 81.4488 272.424 81.4251C272.178 81.3193 271.895 81.3249 271.666 81.4625L270.619 82.0908C270.315 82.2729 269.927 82.225 269.677 81.9747L268.667 80.9651C268.417 80.7148 268.369 80.3263 268.551 80.0228L269.179 78.9758C269.317 78.7464 269.322 78.4634 269.217 78.2176C269.193 78.1627 269.17 78.1075 269.148 78.0518C269.049 77.8021 268.844 77.6054 268.583 77.5411L267.37 77.2424C267.026 77.1576 266.784 76.8484 266.784 76.4935V75.0673C266.784 74.7124 267.026 74.4032 267.37 74.3184L268.583 74.0197C268.844 73.9554 269.049 73.7587 269.148 73.509C269.17 73.4533 269.193 73.3979 269.217 73.343C269.322 73.0972 269.317 72.8143 269.179 72.5849L268.551 71.5379C268.369 71.2344 268.417 70.8459 268.667 70.5956L269.677 69.586C269.927 69.3357 270.315 69.2879 270.619 69.47L271.666 70.0983C271.895 70.2359 272.178 70.2415 272.424 70.1357C272.479 70.112 272.534 70.0892 272.59 70.0671C272.84 69.9681 273.037 69.7629 273.101 69.502L273.399 68.2896C273.484 67.9449 273.793 67.7026 274.148 67.7026H275.574C275.929 67.7026 276.238 67.9449 276.323 68.2896L276.622 69.502C276.686 69.7629 276.883 69.9681 277.133 70.0671C277.188 70.0892 277.244 70.112 277.299 70.1357C277.544 70.2415 277.827 70.236 278.057 70.0983L279.104 69.4701C279.407 69.288 279.796 69.3358 280.046 69.5861L281.056 70.5957C281.306 70.846 281.354 71.2345 281.172 71.538L280.543 72.585C280.406 72.8144 280.4 73.0974 280.506 73.3432C280.53 73.3981 280.553 73.4533 280.575 73.509C280.674 73.7587 280.879 73.9554 281.14 74.0197L282.352 74.3184ZM274.861 72.4678C273.035 72.4678 271.548 73.954 271.548 75.7809C271.548 77.6078 273.035 79.0941 274.861 79.0941C276.688 79.0941 278.175 77.6078 278.175 75.7809C278.175 73.954 276.688 72.4678 274.861 72.4678Z" fill="#ADADAD"/>
<path d="M295.633 89.6281H79.2643V90.7821H295.633V89.6281Z" fill="#E3E3E3" mask="url(#path-2-inside-1_1004_1668)"/>
<path d="M87.3635 340.993H288.69V369.84C288.69 376.478 283.309 381.859 276.671 381.859H99.383C92.7448 381.859 87.3635 376.478 87.3635 369.84V340.993Z" fill="#EDEDED"/>
<g clip-path="url(#clip0_1004_1668)">
<path d="M269.237 365.633L273.38 361.426L269.237 357.219" stroke="#2042E9" stroke-width="1.20195" stroke-linecap="round"/>
</g>
<path d="M105.161 364.126C104.275 364.126 103.54 363.835 102.957 363.251C102.373 362.657 102.082 361.931 102.082 361.072C102.082 360.209 102.373 359.485 102.957 358.902C103.534 358.313 104.269 358.018 105.161 358.018C105.694 358.018 106.185 358.144 106.633 358.397C107.088 358.649 107.441 358.991 107.694 359.423L106.852 359.911C106.695 359.62 106.465 359.39 106.162 359.221C105.865 359.047 105.531 358.96 105.161 358.96C104.538 358.96 104.028 359.16 103.63 359.558C103.243 359.95 103.049 360.455 103.049 361.072C103.049 361.689 103.243 362.194 103.63 362.587C104.028 362.985 104.538 363.184 105.161 363.184C105.531 363.184 105.868 363.1 106.171 362.932C106.474 362.758 106.701 362.525 106.852 362.233L107.694 362.713C107.452 363.139 107.102 363.484 106.642 363.748C106.199 364 105.705 364.126 105.161 364.126ZM111.845 359.81H112.77V364.017H111.887V361.249L110.675 363.176H110.566L109.363 361.257V364.017H108.48V359.81H109.405L110.625 361.754L111.845 359.81ZM117.379 363.487C116.953 363.913 116.428 364.126 115.806 364.126C115.183 364.126 114.659 363.913 114.232 363.487C113.801 363.055 113.585 362.531 113.585 361.914C113.585 361.297 113.801 360.772 114.232 360.34C114.659 359.914 115.183 359.701 115.806 359.701C116.428 359.701 116.953 359.914 117.379 360.34C117.811 360.772 118.027 361.297 118.027 361.914C118.027 362.531 117.811 363.055 117.379 363.487ZM114.493 361.914C114.493 362.295 114.62 362.612 114.872 362.864C115.124 363.117 115.436 363.243 115.806 363.243C116.176 363.243 116.487 363.117 116.74 362.864C116.992 362.612 117.118 362.295 117.118 361.914C117.118 361.532 116.992 361.215 116.74 360.963C116.487 360.711 116.176 360.584 115.806 360.584C115.436 360.584 115.124 360.711 114.872 360.963C114.62 361.215 114.493 361.532 114.493 361.914ZM118.238 359.81H121.898V360.685H120.527V364.017H119.618V360.685H118.238V359.81ZM124.894 359.701C125.466 359.701 125.96 359.917 126.375 360.349C126.785 360.775 126.989 361.297 126.989 361.914C126.989 362.536 126.785 363.061 126.375 363.487C125.966 363.913 125.472 364.126 124.894 364.126C124.26 364.126 123.77 363.891 123.422 363.42V365.7H122.513V359.81H123.422V360.416C123.764 359.939 124.255 359.701 124.894 359.701ZM123.801 362.881C124.053 363.134 124.37 363.26 124.751 363.26C125.133 363.26 125.45 363.134 125.702 362.881C125.954 362.623 126.081 362.301 126.081 361.914C126.081 361.527 125.954 361.207 125.702 360.955C125.45 360.696 125.133 360.567 124.751 360.567C124.37 360.567 124.053 360.696 123.801 360.955C123.548 361.207 123.422 361.527 123.422 361.914C123.422 362.295 123.548 362.618 123.801 362.881ZM131.877 362.301H128.528C128.595 362.615 128.747 362.859 128.982 363.033C129.224 363.207 129.521 363.294 129.874 363.294C130.351 363.294 130.713 363.12 130.96 362.772L131.708 363.209C131.299 363.821 130.685 364.126 129.866 364.126C129.187 364.126 128.635 363.919 128.208 363.504C127.788 363.083 127.577 362.553 127.577 361.914C127.577 361.291 127.785 360.767 128.2 360.34C128.609 359.914 129.142 359.701 129.798 359.701C130.41 359.701 130.915 359.917 131.313 360.349C131.711 360.781 131.91 361.305 131.91 361.922C131.91 362.034 131.899 362.16 131.877 362.301ZM128.52 361.56H130.993C130.932 361.229 130.791 360.974 130.573 360.795C130.359 360.615 130.099 360.525 129.79 360.525C129.454 360.525 129.173 360.618 128.949 360.803C128.724 360.988 128.581 361.241 128.52 361.56ZM132.1 359.81H135.76V360.685H134.388V364.017H133.479V360.685H132.1V359.81ZM137.283 361.241H138.209C138.663 361.241 139.03 361.37 139.311 361.628C139.597 361.88 139.74 362.214 139.74 362.629C139.74 363.038 139.597 363.372 139.311 363.63C139.03 363.888 138.663 364.017 138.209 364.017H136.374V359.81H137.283V361.241ZM137.283 363.201H138.217C138.397 363.201 138.545 363.148 138.663 363.041C138.786 362.935 138.848 362.797 138.848 362.629C138.848 362.461 138.789 362.323 138.671 362.217C138.554 362.11 138.402 362.057 138.217 362.057H137.283V363.201ZM146.288 359.81V363.159H146.852V365.145H145.96V364.017H143.074V365.145H142.182V363.159H142.695C142.953 362.8 143.082 362.292 143.082 361.636V359.81H146.288ZM143.697 363.159H145.396V360.643H143.974V361.636C143.974 362.242 143.882 362.749 143.697 363.159ZM151.489 362.301H148.141C148.208 362.615 148.359 362.859 148.595 363.033C148.836 363.207 149.134 363.294 149.487 363.294C149.964 363.294 150.325 363.12 150.572 362.772L151.321 363.209C150.912 363.821 150.297 364.126 149.479 364.126C148.8 364.126 148.247 363.919 147.821 363.504C147.4 363.083 147.19 362.553 147.19 361.914C147.19 361.291 147.398 360.767 147.813 360.34C148.222 359.914 148.755 359.701 149.411 359.701C150.023 359.701 150.527 359.917 150.926 360.349C151.324 360.781 151.523 361.305 151.523 361.922C151.523 362.034 151.512 362.16 151.489 362.301ZM148.132 361.56H150.606C150.544 361.229 150.404 360.974 150.185 360.795C149.972 360.615 149.711 360.525 149.403 360.525C149.066 360.525 148.786 360.618 148.561 360.803C148.337 360.988 148.194 361.241 148.132 361.56ZM151.712 359.81H155.372V360.685H154.001V364.017H153.092V360.685H151.712V359.81ZM159.155 360.408V359.81H160.063V364.017H159.155V363.411C158.812 363.888 158.322 364.126 157.682 364.126C157.104 364.126 156.611 363.913 156.201 363.487C155.792 363.061 155.587 362.536 155.587 361.914C155.587 361.291 155.792 360.767 156.201 360.34C156.611 359.914 157.104 359.701 157.682 359.701C158.322 359.701 158.812 359.936 159.155 360.408ZM156.875 362.881C157.127 363.134 157.444 363.26 157.825 363.26C158.207 363.26 158.524 363.134 158.776 362.881C159.028 362.623 159.155 362.301 159.155 361.914C159.155 361.527 159.028 361.207 158.776 360.955C158.524 360.696 158.207 360.567 157.825 360.567C157.444 360.567 157.127 360.696 156.875 360.955C156.622 361.207 156.496 361.527 156.496 361.914C156.496 362.295 156.622 362.618 156.875 362.881ZM161.451 359.81H164.673V364.017H163.764V360.685H162.359V362.25C162.359 362.906 162.216 363.378 161.93 363.664C161.644 363.95 161.226 364.068 160.677 364.017V363.167C160.935 363.212 161.128 363.159 161.257 363.007C161.386 362.85 161.451 362.584 161.451 362.208V359.81ZM166.624 362.477L168.778 359.81H169.476V364.017H168.584V361.342L166.43 364.017H165.732V359.81H166.624V362.477Z" fill="#2042E9"/>
<g clip-path="url(#clip1_1004_1668)">
<path d="M87.3635 304.934C87.3635 298.296 92.7448 292.915 99.383 292.915H276.671C283.309 292.915 288.69 298.296 288.69 304.934V340.993H87.3635V304.934Z" fill="#F5F5F5"/>
<path opacity="0.8" d="M103.47 316.338H101.614L101.326 315.367H99.0851L98.7966 316.338H96.9312L99.1524 309.607H101.249L103.47 316.338ZM100.2 311.597L99.5274 313.886H100.883L100.2 311.597ZM105.807 314.29L106.701 311.53H108.47L106.672 316.338H104.942L103.143 311.53H104.913L105.807 314.29ZM111.811 311.53V313.059H110.811V314.453C110.811 314.658 110.881 314.79 111.022 314.847C111.17 314.899 111.433 314.915 111.811 314.896V316.338C110.862 316.453 110.189 316.367 109.792 316.078C109.407 315.777 109.215 315.248 109.215 314.492V313.059H108.493V311.53H109.215V310.665L110.811 310.184V311.53H111.811ZM114.702 316.473C113.984 316.473 113.378 316.229 112.884 315.742C112.384 315.255 112.134 314.652 112.134 313.934C112.134 313.229 112.384 312.629 112.884 312.136C113.391 311.642 113.996 311.395 114.702 311.395C115.419 311.395 116.025 311.642 116.519 312.136C117.019 312.629 117.269 313.229 117.269 313.934C117.269 314.652 117.019 315.255 116.519 315.742C116.032 316.229 115.426 316.473 114.702 316.473ZM114.702 314.934C114.984 314.934 115.214 314.841 115.394 314.655C115.58 314.469 115.673 314.229 115.673 313.934C115.673 313.639 115.58 313.399 115.394 313.213C115.214 313.027 114.984 312.934 114.702 312.934C114.426 312.934 114.195 313.03 114.009 313.222C113.83 313.408 113.74 313.646 113.74 313.934C113.74 314.222 113.83 314.463 114.009 314.655C114.195 314.841 114.426 314.934 114.702 314.934ZM123.391 311.395C123.949 311.395 124.388 311.575 124.708 311.934C125.035 312.287 125.199 312.774 125.199 313.396V316.338H123.593V313.578C123.593 313.129 123.394 312.905 122.997 312.905C122.785 312.905 122.622 312.976 122.506 313.117C122.391 313.258 122.333 313.456 122.333 313.713V316.338H120.737V313.578C120.737 313.129 120.535 312.905 120.131 312.905C119.92 312.905 119.756 312.976 119.641 313.117C119.526 313.258 119.468 313.456 119.468 313.713V316.338H117.872V311.53H119.468V311.982C119.763 311.591 120.195 311.395 120.766 311.395C121.317 311.395 121.728 311.601 121.997 312.011C122.33 311.601 122.795 311.395 123.391 311.395ZM129.346 311.972V311.53H130.942V316.338H129.346V315.896C129.019 316.28 128.564 316.473 127.98 316.473C127.333 316.473 126.794 316.232 126.365 315.751C125.935 315.264 125.721 314.658 125.721 313.934C125.721 313.203 125.935 312.601 126.365 312.126C126.794 311.639 127.333 311.395 127.98 311.395C128.564 311.395 129.019 311.588 129.346 311.972ZM127.605 314.694C127.785 314.886 128.028 314.982 128.336 314.982C128.644 314.982 128.887 314.886 129.067 314.694C129.253 314.495 129.346 314.242 129.346 313.934C129.346 313.626 129.253 313.373 129.067 313.174C128.887 312.982 128.644 312.886 128.336 312.886C128.028 312.886 127.785 312.982 127.605 313.174C127.419 313.373 127.327 313.626 127.327 313.934C127.327 314.242 127.419 314.495 127.605 314.694ZM133.269 312.934C133.269 313.017 133.336 313.088 133.471 313.146C133.612 313.197 133.823 313.254 134.105 313.319C134.298 313.357 134.474 313.408 134.634 313.472C134.801 313.53 134.964 313.617 135.125 313.732C135.291 313.841 135.42 313.995 135.509 314.194C135.605 314.386 135.654 314.607 135.654 314.857C135.654 315.415 135.448 315.822 135.038 316.078C134.621 316.341 134.134 316.473 133.577 316.473C132.5 316.473 131.782 316.091 131.423 315.328L132.817 314.626C132.939 314.979 133.189 315.155 133.567 315.155C133.855 315.155 134 315.069 134 314.896C134 314.812 133.932 314.745 133.798 314.694C133.67 314.636 133.461 314.572 133.173 314.501C132.98 314.463 132.804 314.412 132.644 314.347C132.49 314.277 132.33 314.187 132.163 314.078C132.003 313.969 131.878 313.825 131.788 313.646C131.698 313.46 131.653 313.248 131.653 313.011C131.653 312.498 131.843 312.101 132.221 311.819C132.599 311.536 133.054 311.395 133.586 311.395C134.529 311.395 135.189 311.767 135.567 312.511L134.221 313.117C134.08 312.841 133.881 312.703 133.625 312.703C133.387 312.703 133.269 312.78 133.269 312.934ZM139.016 311.53V313.059H138.016V314.453C138.016 314.658 138.087 314.79 138.228 314.847C138.375 314.899 138.638 314.915 139.016 314.896V316.338C138.068 316.453 137.394 316.367 136.997 316.078C136.612 315.777 136.42 315.248 136.42 314.492V313.059H135.699V311.53H136.42V310.665L138.016 310.184V311.53H139.016ZM144.311 314.521H140.993C141.154 314.912 141.513 315.107 142.07 315.107C142.41 315.107 142.702 314.995 142.945 314.771L144.099 315.578C143.631 316.174 142.942 316.473 142.032 316.473C141.218 316.473 140.564 316.235 140.07 315.761C139.583 315.28 139.34 314.674 139.34 313.944C139.34 313.219 139.58 312.613 140.061 312.126C140.542 311.639 141.154 311.395 141.897 311.395C142.615 311.395 143.208 311.636 143.676 312.117C144.144 312.591 144.378 313.194 144.378 313.924C144.378 314.149 144.356 314.347 144.311 314.521ZM140.974 313.415H142.82C142.699 312.966 142.397 312.742 141.917 312.742C141.423 312.742 141.109 312.966 140.974 313.415ZM146.561 311.53V312.424C146.65 312.117 146.827 311.876 147.09 311.703C147.359 311.524 147.663 311.434 148.003 311.434V313.203C147.638 313.146 147.304 313.213 147.003 313.405C146.708 313.597 146.561 313.912 146.561 314.347V316.338H144.964V311.53H146.561ZM152.117 312.934C152.117 313.017 152.184 313.088 152.319 313.146C152.46 313.197 152.671 313.254 152.954 313.319C153.146 313.357 153.322 313.408 153.482 313.472C153.649 313.53 153.813 313.617 153.973 313.732C154.139 313.841 154.268 313.995 154.357 314.194C154.454 314.386 154.502 314.607 154.502 314.857C154.502 315.415 154.297 315.822 153.886 316.078C153.47 316.341 152.982 316.473 152.425 316.473C151.348 316.473 150.63 316.091 150.271 315.328L151.665 314.626C151.787 314.979 152.037 315.155 152.415 315.155C152.704 315.155 152.848 315.069 152.848 314.896C152.848 314.812 152.78 314.745 152.646 314.694C152.518 314.636 152.309 314.572 152.021 314.501C151.829 314.463 151.652 314.412 151.492 314.347C151.338 314.277 151.178 314.187 151.011 314.078C150.851 313.969 150.726 313.825 150.636 313.646C150.546 313.46 150.502 313.248 150.502 313.011C150.502 312.498 150.691 312.101 151.069 311.819C151.447 311.536 151.902 311.395 152.434 311.395C153.377 311.395 154.037 311.767 154.415 312.511L153.069 313.117C152.928 312.841 152.729 312.703 152.473 312.703C152.236 312.703 152.117 312.78 152.117 312.934ZM159.746 314.521H156.429C156.589 314.912 156.948 315.107 157.506 315.107C157.845 315.107 158.137 314.995 158.381 314.771L159.535 315.578C159.067 316.174 158.378 316.473 157.467 316.473C156.653 316.473 155.999 316.235 155.506 315.761C155.018 315.28 154.775 314.674 154.775 313.944C154.775 313.219 155.015 312.613 155.496 312.126C155.977 311.639 156.589 311.395 157.333 311.395C158.051 311.395 158.644 311.636 159.112 312.117C159.579 312.591 159.813 313.194 159.813 313.924C159.813 314.149 159.791 314.347 159.746 314.521ZM156.41 313.415H158.256C158.134 312.966 157.833 312.742 157.352 312.742C156.858 312.742 156.544 312.966 156.41 313.415ZM161.996 311.53V312.424C162.086 312.117 162.262 311.876 162.525 311.703C162.794 311.524 163.099 311.434 163.438 311.434V313.203C163.073 313.146 162.74 313.213 162.438 313.405C162.143 313.597 161.996 313.912 161.996 314.347V316.338H160.4V311.53H161.996ZM166.146 314.29L167.04 311.53H168.81L167.011 316.338H165.281L163.482 311.53H165.252L166.146 314.29ZM170.611 310.867C170.432 311.046 170.217 311.136 169.967 311.136C169.717 311.136 169.499 311.046 169.313 310.867C169.134 310.681 169.044 310.463 169.044 310.213C169.044 309.963 169.134 309.748 169.313 309.568C169.499 309.389 169.717 309.299 169.967 309.299C170.217 309.299 170.432 309.389 170.611 309.568C170.797 309.748 170.89 309.963 170.89 310.213C170.89 310.463 170.797 310.681 170.611 310.867ZM170.765 316.338H169.169V311.53H170.765V316.338ZM173.904 316.473C173.173 316.473 172.564 316.229 172.077 315.742C171.59 315.255 171.346 314.652 171.346 313.934C171.346 313.216 171.59 312.613 172.077 312.126C172.564 311.639 173.173 311.395 173.904 311.395C174.379 311.395 174.808 311.508 175.193 311.732C175.584 311.95 175.885 312.251 176.097 312.636L174.731 313.424C174.558 313.11 174.279 312.953 173.895 312.953C173.625 312.953 173.401 313.046 173.221 313.232C173.042 313.412 172.952 313.646 172.952 313.934C172.952 314.222 173.042 314.46 173.221 314.646C173.401 314.825 173.625 314.915 173.895 314.915C174.286 314.915 174.564 314.755 174.731 314.434L176.097 315.222C175.885 315.607 175.584 315.912 175.193 316.136C174.808 316.36 174.379 316.473 173.904 316.473ZM181.158 314.521H177.84C178.001 314.912 178.36 315.107 178.917 315.107C179.257 315.107 179.549 314.995 179.792 314.771L180.946 315.578C180.478 316.174 179.789 316.473 178.879 316.473C178.065 316.473 177.411 316.235 176.917 315.761C176.43 315.28 176.187 314.674 176.187 313.944C176.187 313.219 176.427 312.613 176.908 312.126C177.388 311.639 178.001 311.395 178.744 311.395C179.462 311.395 180.055 311.636 180.523 312.117C180.991 312.591 181.225 313.194 181.225 313.924C181.225 314.149 181.203 314.347 181.158 314.521ZM177.821 313.415H179.667C179.546 312.966 179.244 312.742 178.764 312.742C178.27 312.742 177.956 312.966 177.821 313.415Z" fill="black"/>
<path d="M101.429 322.714H102.316V327.762H101.487V324.163L99.9505 326.702H99.8495L98.3134 324.156V327.762H97.4841V322.714H98.3783L99.9 325.238L101.429 322.714ZM106.323 327.307C105.957 327.673 105.508 327.855 104.974 327.855C104.44 327.855 103.991 327.673 103.625 327.307C103.255 326.937 103.07 326.488 103.07 325.959C103.07 325.43 103.255 324.98 103.625 324.61C103.991 324.245 104.44 324.062 104.974 324.062C105.508 324.062 105.957 324.245 106.323 324.61C106.693 324.98 106.878 325.43 106.878 325.959C106.878 326.488 106.693 326.937 106.323 327.307ZM103.849 325.959C103.849 326.286 103.957 326.557 104.173 326.774C104.39 326.99 104.657 327.098 104.974 327.098C105.291 327.098 105.558 326.99 105.774 326.774C105.991 326.557 106.099 326.286 106.099 325.959C106.099 325.632 105.991 325.36 105.774 325.144C105.558 324.928 105.291 324.819 104.974 324.819C104.657 324.819 104.39 324.928 104.173 325.144C103.957 325.36 103.849 325.632 103.849 325.959ZM107.582 324.156H109.998V324.906H108.361V327.762H107.582V324.156ZM111.29 326.442L113.137 324.156H113.735V327.762H112.971V325.468L111.125 327.762H110.526V324.156H111.29V326.442ZM114.92 324.156H117.682V327.762H116.903V324.906H115.699V326.247C115.699 326.81 115.576 327.214 115.331 327.459C115.086 327.704 114.728 327.805 114.257 327.762V327.033C114.478 327.072 114.644 327.026 114.754 326.896C114.865 326.762 114.92 326.533 114.92 326.211V324.156ZM122.073 326.291H119.203C119.261 326.56 119.39 326.769 119.592 326.918C119.799 327.067 120.054 327.142 120.357 327.142C120.765 327.142 121.075 326.992 121.287 326.694L121.929 327.069C121.578 327.593 121.051 327.855 120.349 327.855C119.768 327.855 119.294 327.678 118.929 327.322C118.568 326.961 118.388 326.507 118.388 325.959C118.388 325.425 118.566 324.976 118.922 324.61C119.273 324.245 119.729 324.062 120.292 324.062C120.816 324.062 121.249 324.247 121.59 324.617C121.931 324.988 122.102 325.437 122.102 325.966C122.102 326.062 122.092 326.17 122.073 326.291ZM119.196 325.656H121.316C121.263 325.372 121.143 325.153 120.955 325C120.773 324.846 120.549 324.769 120.285 324.769C119.996 324.769 119.756 324.848 119.563 325.007C119.371 325.166 119.248 325.382 119.196 325.656ZM125.283 325.908C125.638 326.077 125.816 326.353 125.816 326.738C125.816 327.045 125.71 327.293 125.499 327.48C125.292 327.668 125.004 327.762 124.633 327.762H122.787V324.156H124.489C124.855 324.156 125.141 324.247 125.347 324.43C125.554 324.613 125.658 324.853 125.658 325.151C125.658 325.492 125.533 325.745 125.283 325.908ZM124.432 324.819H123.53V325.62H124.432C124.749 325.62 124.907 325.485 124.907 325.216C124.907 324.952 124.749 324.819 124.432 324.819ZM123.53 327.084H124.561C124.888 327.084 125.052 326.942 125.052 326.658C125.052 326.533 125.008 326.437 124.922 326.37C124.835 326.298 124.715 326.262 124.561 326.262H123.53V327.084ZM128.151 327.855C127.608 327.855 127.154 327.673 126.788 327.307C126.428 326.937 126.248 326.488 126.248 325.959C126.248 325.42 126.428 324.971 126.788 324.61C127.154 324.245 127.608 324.062 128.151 324.062C128.502 324.062 128.822 324.146 129.111 324.315C129.399 324.483 129.615 324.709 129.76 324.992L129.089 325.382C129.007 325.209 128.882 325.074 128.714 324.978C128.55 324.877 128.361 324.827 128.144 324.827C127.827 324.827 127.56 324.935 127.344 325.151C127.132 325.372 127.026 325.641 127.026 325.959C127.026 326.276 127.132 326.545 127.344 326.767C127.56 326.983 127.827 327.091 128.144 327.091C128.356 327.091 128.546 327.043 128.714 326.947C128.887 326.846 129.017 326.709 129.103 326.536L129.774 326.918C129.62 327.206 129.397 327.435 129.103 327.603C128.815 327.771 128.498 327.855 128.151 327.855ZM131.901 325.923L133.546 327.762H132.615L131.137 326.096V327.762H130.358V324.156H131.137V325.75L132.536 324.156H133.488L131.901 325.923ZM136.637 324.668V324.156H137.416V327.762H136.637V327.242C136.343 327.651 135.923 327.855 135.375 327.855C134.879 327.855 134.456 327.673 134.105 327.307C133.754 326.942 133.579 326.492 133.579 325.959C133.579 325.425 133.754 324.976 134.105 324.61C134.456 324.245 134.879 324.062 135.375 324.062C135.923 324.062 136.343 324.264 136.637 324.668ZM134.682 326.788C134.899 327.004 135.17 327.113 135.497 327.113C135.824 327.113 136.096 327.004 136.312 326.788C136.529 326.567 136.637 326.291 136.637 325.959C136.637 325.627 136.529 325.353 136.312 325.137C136.096 324.915 135.824 324.805 135.497 324.805C135.17 324.805 134.899 324.915 134.682 325.137C134.466 325.353 134.358 325.627 134.358 325.959C134.358 326.286 134.466 326.562 134.682 326.788ZM139.506 324.156H141.114V327.762H140.35V326.55H139.917L139.001 327.762H138.085L139.059 326.478C138.809 326.396 138.607 326.252 138.453 326.045C138.304 325.839 138.23 325.608 138.23 325.353C138.23 325.021 138.347 324.74 138.583 324.509C138.819 324.274 139.126 324.156 139.506 324.156ZM139.549 325.879H140.35V324.863H139.549C139.386 324.863 139.251 324.911 139.146 325.007C139.045 325.098 138.994 325.221 138.994 325.375C138.994 325.528 139.045 325.651 139.146 325.742C139.251 325.834 139.386 325.879 139.549 325.879ZM142.237 326.896H143.103L142.598 328.771H141.949L142.237 326.896ZM148.761 326.081H149.338V326.853H148.761V327.762H147.925V326.853H145.444V326.081L147.182 322.714H148.083L146.345 326.081H147.925V324.769H148.761V326.081ZM153.19 327.142C152.844 327.617 152.358 327.855 151.733 327.855C151.113 327.855 150.625 327.617 150.269 327.142C149.923 326.666 149.75 326.031 149.75 325.238C149.75 324.444 149.923 323.81 150.269 323.334C150.625 322.858 151.113 322.62 151.733 322.62C152.358 322.62 152.844 322.858 153.19 323.334C153.541 323.805 153.716 324.44 153.716 325.238C153.716 326.036 153.541 326.67 153.19 327.142ZM151.733 327.048C152.108 327.048 152.394 326.892 152.591 326.579C152.788 326.266 152.887 325.819 152.887 325.238C152.887 324.656 152.788 324.209 152.591 323.896C152.394 323.584 152.108 323.427 151.733 323.427C151.363 323.427 151.077 323.584 150.875 323.896C150.678 324.209 150.579 324.656 150.579 325.238C150.579 325.819 150.678 326.266 150.875 326.579C151.077 326.892 151.363 327.048 151.733 327.048Z" fill="#939393"/>
</g>
<rect x="211.165" y="302.53" width="67.9103" height="24.039" rx="12.0195" fill="white"/>
<path d="M224.254 312.147C224.218 312.144 224.182 312.147 224.145 312.156C224.003 312.191 223.819 312.275 223.626 312.468C223.021 313.073 222.7 314.092 224.974 316.366C227.247 318.64 228.267 318.319 228.872 317.714C229.066 317.52 229.15 317.336 229.184 317.194C229.219 317.048 229.157 316.898 229.027 316.823C228.704 316.634 228.008 316.225 227.685 316.036C227.578 315.974 227.448 315.975 227.343 316.038L226.808 316.356C226.689 316.428 226.539 316.42 226.429 316.334C226.24 316.186 225.934 315.936 225.669 315.671C225.403 315.405 225.153 315.1 225.005 314.91C224.92 314.8 224.911 314.651 224.983 314.531L225.301 313.997C225.364 313.891 225.365 313.76 225.303 313.653L224.518 312.314C224.461 312.217 224.362 312.156 224.254 312.147Z" fill="black" stroke="black" stroke-width="0.300488"/>
<path d="M232.535 311.295H236.249V316.343H235.419V312.088H233.364V316.343H232.535V311.295ZM240.26 315.889C239.895 316.254 239.446 316.437 238.912 316.437C238.378 316.437 237.929 316.254 237.563 315.889C237.193 315.518 237.008 315.069 237.008 314.54C237.008 314.011 237.193 313.562 237.563 313.191C237.929 312.826 238.378 312.643 238.912 312.643C239.446 312.643 239.895 312.826 240.26 313.191C240.631 313.562 240.816 314.011 240.816 314.54C240.816 315.069 240.631 315.518 240.26 315.889ZM237.787 314.54C237.787 314.867 237.895 315.139 238.111 315.355C238.328 315.571 238.595 315.68 238.912 315.68C239.229 315.68 239.496 315.571 239.712 315.355C239.929 315.139 240.037 314.867 240.037 314.54C240.037 314.213 239.929 313.942 239.712 313.725C239.496 313.509 239.229 313.401 238.912 313.401C238.595 313.401 238.328 313.509 238.111 313.725C237.895 313.942 237.787 314.213 237.787 314.54ZM243.406 314.497C243.79 314.67 243.983 314.956 243.983 315.355C243.983 315.668 243.855 315.927 243.6 316.134C243.346 316.336 242.999 316.437 242.562 316.437C241.836 316.437 241.346 316.148 241.091 315.571L241.725 315.196C241.855 315.557 242.136 315.737 242.569 315.737C242.771 315.737 242.93 315.696 243.045 315.615C243.16 315.528 243.218 315.415 243.218 315.276C243.218 315.151 243.172 315.052 243.081 314.98C242.99 314.903 242.862 314.865 242.699 314.865H242.187V314.18H242.569C242.728 314.18 242.85 314.143 242.937 314.071C243.028 313.994 243.074 313.891 243.074 313.761C243.074 313.636 243.023 313.535 242.922 313.458C242.822 313.377 242.687 313.336 242.519 313.336C242.158 313.336 241.908 313.494 241.769 313.812L241.134 313.451C241.398 312.913 241.855 312.643 242.504 312.643C242.908 312.643 243.228 312.747 243.463 312.954C243.704 313.155 243.824 313.403 243.824 313.696C243.824 314.057 243.685 314.324 243.406 314.497ZM247.114 314.49C247.47 314.658 247.648 314.934 247.648 315.319C247.648 315.627 247.542 315.874 247.33 316.062C247.124 316.249 246.835 316.343 246.465 316.343H244.619V312.737H246.321C246.686 312.737 246.972 312.829 247.179 313.011C247.386 313.194 247.489 313.434 247.489 313.732C247.489 314.074 247.364 314.326 247.114 314.49ZM246.263 313.401H245.362V314.201H246.263C246.58 314.201 246.739 314.067 246.739 313.797C246.739 313.533 246.58 313.401 246.263 313.401ZM245.362 315.665H246.393C246.72 315.665 246.883 315.523 246.883 315.24C246.883 315.115 246.84 315.018 246.753 314.951C246.667 314.879 246.547 314.843 246.393 314.843H245.362V315.665ZM251.332 315.889C250.966 316.254 250.517 316.437 249.983 316.437C249.449 316.437 249 316.254 248.634 315.889C248.264 315.518 248.079 315.069 248.079 314.54C248.079 314.011 248.264 313.562 248.634 313.191C249 312.826 249.449 312.643 249.983 312.643C250.517 312.643 250.966 312.826 251.332 313.191C251.702 313.562 251.887 314.011 251.887 314.54C251.887 315.069 251.702 315.518 251.332 315.889ZM248.858 314.54C248.858 314.867 248.966 315.139 249.182 315.355C249.399 315.571 249.666 315.68 249.983 315.68C250.3 315.68 250.567 315.571 250.783 315.355C251 315.139 251.108 314.867 251.108 314.54C251.108 314.213 251 313.942 250.783 313.725C250.567 313.509 250.3 313.401 249.983 313.401C249.666 313.401 249.399 313.509 249.182 313.725C248.966 313.942 248.858 314.213 248.858 314.54ZM255.021 314.172V312.737H255.8V316.343H255.021V314.908H253.37V316.343H252.591V312.737H253.37V314.172H255.021ZM257.468 315.023L259.315 312.737H259.913V316.343H259.149V314.05L257.303 316.343H256.704V312.737H257.468V315.023ZM260.435 312.737H263.572V313.487H262.396V316.343H261.617V313.487H260.435V312.737ZM264.878 313.963H265.671C266.06 313.963 266.375 314.074 266.616 314.295C266.861 314.511 266.984 314.797 266.984 315.153C266.984 315.504 266.861 315.79 266.616 316.011C266.375 316.232 266.06 316.343 265.671 316.343H264.099V312.737H264.878V313.963ZM264.878 315.643H265.678C265.832 315.643 265.959 315.598 266.06 315.506C266.166 315.415 266.219 315.297 266.219 315.153C266.219 315.009 266.169 314.891 266.068 314.8C265.967 314.708 265.837 314.663 265.678 314.663H264.878V315.643Z" fill="black"/>
<path d="M75.2146 77.5545C75.2146 61.2595 88.4244 48.0497 104.719 48.0497H270.178C286.473 48.0497 299.683 61.2594 299.683 77.5545V400.95H75.2146V77.5545Z" stroke="#2042E9" stroke-width="8.09936"/>
<path d="M53.0556 121.707C53.0556 114.799 58.656 109.198 65.5644 109.198H310.091C317 109.198 322.6 114.799 322.6 121.707V141.076C322.6 147.984 317 153.584 310.091 153.584H65.5644C58.656 153.584 53.0556 147.984 53.0556 141.076V121.707Z" fill="white"/>
<rect x="285.073" y="116.865" width="29.0527" height="29.0527" rx="14.5263" fill="#F5F5F5"/>
<path d="M295.565 133.49L299.6 129.455L303.635 133.49" stroke="#ADADAD" stroke-width="1.61404" stroke-linecap="round"/>
<path d="M53.0556 121.707C53.0556 114.799 58.656 109.198 65.5644 109.198H310.091C317 109.198 322.6 114.799 322.6 121.707V141.076C322.6 147.984 317 153.584 310.091 153.584H65.5644C58.656 153.584 53.0556 147.984 53.0556 141.076V121.707Z" stroke="#2042E9" stroke-width="0.807019"/>
<path d="M70.5208 129.72V126.579H72.0686V134.488H70.5208V131.212H67.5832V134.488H66.0241V126.579H67.5832V129.72H70.5208ZM77.7634 129.506V128.839H79.2209V134.488H77.7634V133.822C77.3265 134.372 76.7127 134.646 75.9218 134.646C75.1686 134.646 74.5208 134.36 73.9785 133.788C73.4437 133.208 73.1763 132.5 73.1763 131.664C73.1763 130.835 73.4437 130.131 73.9785 129.551C74.5208 128.971 75.1686 128.681 75.9218 128.681C76.7127 128.681 77.3265 128.956 77.7634 129.506ZM75.0744 132.816C75.3682 133.11 75.741 133.257 76.1929 133.257C76.6449 133.257 77.0177 133.11 77.3115 132.816C77.6128 132.515 77.7634 132.131 77.7634 131.664C77.7634 131.197 77.6128 130.816 77.3115 130.523C77.0177 130.221 76.6449 130.071 76.1929 130.071C75.741 130.071 75.3682 130.221 75.0744 130.523C74.7807 130.816 74.6338 131.197 74.6338 131.664C74.6338 132.131 74.7807 132.515 75.0744 132.816ZM83.8529 131.607C84.4253 131.886 84.7116 132.334 84.7116 132.952C84.7116 133.449 84.5082 133.856 84.1015 134.172C83.6947 134.488 83.1373 134.646 82.4293 134.646C81.2844 134.646 80.5048 134.195 80.0906 133.291L81.2769 132.59C81.4577 133.102 81.8456 133.358 82.4406 133.358C82.7118 133.358 82.9189 133.306 83.062 133.2C83.2127 133.095 83.288 132.952 83.288 132.771C83.288 132.424 83.0658 132.251 82.6214 132.251H81.8192V131.008H82.4293C82.8662 131.008 83.0846 130.835 83.0846 130.489C83.0846 130.323 83.0206 130.191 82.8925 130.093C82.7645 129.995 82.595 129.946 82.3841 129.946C81.9021 129.946 81.5518 130.184 81.3334 130.658L80.1584 129.98C80.5877 129.114 81.3221 128.681 82.3615 128.681C83.0093 128.681 83.5215 128.847 83.8981 129.178C84.2822 129.51 84.4743 129.905 84.4743 130.364C84.4743 130.914 84.2672 131.329 83.8529 131.607ZM89.6963 131.596C90.2236 131.852 90.4872 132.281 90.4872 132.884C90.4872 133.366 90.3215 133.754 89.9901 134.048C89.6586 134.341 89.1954 134.488 88.6004 134.488H85.6289V128.839H88.3744C88.9619 128.839 89.4214 128.986 89.7528 129.28C90.0842 129.566 90.2499 129.95 90.2499 130.432C90.2499 130.929 90.0654 131.317 89.6963 131.596ZM88.2388 130.037H86.996V131.054H88.2388C88.6531 131.054 88.8602 130.884 88.8602 130.545C88.8602 130.206 88.6531 130.037 88.2388 130.037ZM86.996 133.257H88.4309C88.8527 133.257 89.0636 133.076 89.0636 132.714C89.0636 132.556 89.0071 132.432 88.8941 132.342C88.7811 132.251 88.6267 132.206 88.4309 132.206H86.996V133.257ZM95.6928 129.506V128.839H97.1503V134.488H95.6928V133.822C95.2559 134.372 94.642 134.646 93.8512 134.646C93.0979 134.646 92.4502 134.36 91.9079 133.788C91.3731 133.208 91.1057 132.5 91.1057 131.664C91.1057 130.835 91.3731 130.131 91.9079 129.551C92.4502 128.971 93.0979 128.681 93.8512 128.681C94.642 128.681 95.2559 128.956 95.6928 129.506ZM93.0038 132.816C93.2975 133.11 93.6704 133.257 94.1223 133.257C94.5742 133.257 94.9471 133.11 95.2408 132.816C95.5421 132.515 95.6928 132.131 95.6928 131.664C95.6928 131.197 95.5421 130.816 95.2408 130.523C94.9471 130.221 94.5742 130.071 94.1223 130.071C93.6704 130.071 93.2975 130.221 93.0038 130.523C92.71 130.816 92.5632 131.197 92.5632 131.664C92.5632 132.131 92.71 132.515 93.0038 132.816ZM102.178 130.975V128.839H103.635V134.488H102.178V132.342H99.9294V134.488H98.4719V128.839H99.9294V130.975H102.178ZM106.394 132.048L109.049 128.839H110.134V134.488H108.71V131.28L106.055 134.488H104.971V128.839H106.394V132.048ZM116.96 132.263H112.701C112.889 132.971 113.42 133.325 114.294 133.325C114.851 133.325 115.273 133.136 115.559 132.76L116.734 133.438C116.177 134.243 115.356 134.646 114.271 134.646C113.337 134.646 112.588 134.364 112.023 133.799C111.458 133.234 111.176 132.522 111.176 131.664C111.176 130.82 111.454 130.112 112.012 129.54C112.561 128.967 113.277 128.681 114.158 128.681C114.994 128.681 115.676 128.967 116.203 129.54C116.746 130.112 117.017 130.82 117.017 131.664C117.017 131.822 116.998 132.021 116.96 132.263ZM112.678 131.133H115.559C115.476 130.764 115.307 130.481 115.051 130.285C114.802 130.089 114.505 129.992 114.158 129.992C113.767 129.992 113.443 130.093 113.187 130.297C112.931 130.492 112.761 130.771 112.678 131.133ZM123.548 134.646C122.697 134.646 121.985 134.36 121.412 133.788C120.847 133.215 120.565 132.507 120.565 131.664C120.565 130.82 120.847 130.112 121.412 129.54C121.985 128.967 122.697 128.681 123.548 128.681C124.098 128.681 124.599 128.813 125.05 129.076C125.502 129.34 125.845 129.694 126.079 130.138L124.824 130.873C124.711 130.639 124.538 130.455 124.305 130.319C124.079 130.184 123.823 130.116 123.536 130.116C123.1 130.116 122.738 130.263 122.452 130.556C122.166 130.843 122.022 131.212 122.022 131.664C122.022 132.101 122.166 132.47 122.452 132.771C122.738 133.057 123.1 133.2 123.536 133.2C123.83 133.2 124.09 133.136 124.316 133.008C124.55 132.873 124.723 132.688 124.836 132.455L126.101 133.178C125.853 133.63 125.499 133.987 125.039 134.251C124.587 134.515 124.09 134.646 123.548 134.646ZM132.275 132.263H128.015C128.204 132.971 128.735 133.325 129.608 133.325C130.166 133.325 130.587 133.136 130.874 132.76L132.049 133.438C131.491 134.243 130.67 134.646 129.586 134.646C128.652 134.646 127.902 134.364 127.337 133.799C126.772 133.234 126.49 132.522 126.49 131.664C126.49 130.82 126.769 130.112 127.326 129.54C127.876 128.967 128.591 128.681 129.473 128.681C130.309 128.681 130.99 128.967 131.518 129.54C132.06 130.112 132.331 130.82 132.331 131.664C132.331 131.822 132.312 132.021 132.275 132.263ZM127.993 131.133H130.874C130.791 130.764 130.621 130.481 130.365 130.285C130.117 130.089 129.819 129.992 129.473 129.992C129.081 129.992 128.757 130.093 128.501 130.297C128.245 130.492 128.076 130.771 127.993 131.133ZM136.636 128.681C137.397 128.681 138.045 128.971 138.58 129.551C139.122 130.131 139.393 130.835 139.393 131.664C139.393 132.507 139.122 133.215 138.58 133.788C138.053 134.36 137.405 134.646 136.636 134.646C135.846 134.646 135.235 134.372 134.806 133.822V136.748H133.349V128.839H134.806V129.506C135.235 128.956 135.846 128.681 136.636 128.681ZM135.247 132.816C135.541 133.11 135.913 133.257 136.365 133.257C136.817 133.257 137.19 133.11 137.484 132.816C137.785 132.515 137.936 132.131 137.936 131.664C137.936 131.197 137.785 130.816 137.484 130.523C137.19 130.221 136.817 130.071 136.365 130.071C135.913 130.071 135.541 130.221 135.247 130.523C134.953 130.816 134.806 131.197 134.806 131.664C134.806 132.131 134.953 132.515 135.247 132.816ZM144.488 131.596C145.016 131.852 145.279 132.281 145.279 132.884C145.279 133.366 145.114 133.754 144.782 134.048C144.451 134.341 143.988 134.488 143.393 134.488H140.421V128.839H143.167C143.754 128.839 144.214 128.986 144.545 129.28C144.876 129.566 145.042 129.95 145.042 130.432C145.042 130.929 144.858 131.317 144.488 131.596ZM143.031 130.037H141.788V131.054H143.031C143.445 131.054 143.652 130.884 143.652 130.545C143.652 130.206 143.445 130.037 143.031 130.037ZM141.788 133.257H143.223C143.645 133.257 143.856 133.076 143.856 132.714C143.856 132.556 143.799 132.432 143.686 132.342C143.573 132.251 143.419 132.206 143.223 132.206H141.788V133.257ZM147.615 132.048L150.27 128.839H151.355V134.488H149.931V131.28L147.276 134.488H146.192V128.839H147.615V132.048ZM155.379 134.646C154.528 134.646 153.816 134.36 153.244 133.788C152.679 133.215 152.397 132.507 152.397 131.664C152.397 130.82 152.679 130.112 153.244 129.54C153.816 128.967 154.528 128.681 155.379 128.681C155.929 128.681 156.43 128.813 156.882 129.076C157.334 129.34 157.677 129.694 157.91 130.138L156.656 130.873C156.543 130.639 156.37 130.455 156.136 130.319C155.91 130.184 155.654 130.116 155.368 130.116C154.931 130.116 154.57 130.263 154.283 130.556C153.997 130.843 153.854 131.212 153.854 131.664C153.854 132.101 153.997 132.47 154.283 132.771C154.57 133.057 154.931 133.2 155.368 133.2C155.662 133.2 155.922 133.136 156.148 133.008C156.381 132.873 156.554 132.688 156.667 132.455L157.933 133.178C157.684 133.63 157.33 133.987 156.871 134.251C156.419 134.515 155.922 134.646 155.379 134.646ZM162.909 129.506V128.839H164.366V134.488H162.909V133.822C162.472 134.372 161.858 134.646 161.067 134.646C160.314 134.646 159.666 134.36 159.124 133.788C158.589 133.208 158.322 132.5 158.322 131.664C158.322 130.835 158.589 130.131 159.124 129.551C159.666 128.971 160.314 128.681 161.067 128.681C161.858 128.681 162.472 128.956 162.909 129.506ZM160.22 132.816C160.513 133.11 160.886 133.257 161.338 133.257C161.79 133.257 162.163 133.11 162.457 132.816C162.758 132.515 162.909 132.131 162.909 131.664C162.909 131.197 162.758 130.816 162.457 130.523C162.163 130.221 161.79 130.071 161.338 130.071C160.886 130.071 160.513 130.221 160.22 130.523C159.926 130.816 159.779 131.197 159.779 131.664C159.779 132.131 159.926 132.515 160.22 132.816Z" fill="#939393"/>
<g filter="url(#filter0_d_1004_1668)">
<path d="M52.6521 171.742C52.6521 164.611 58.4331 158.83 65.5644 158.83H310.091C317.222 158.83 323.003 164.611 323.003 171.742V267.778C323.003 274.909 317.222 280.69 310.091 280.69H65.5644C58.4331 280.69 52.6521 274.909 52.6521 267.778V171.742Z" fill="white"/>
<path opacity="0.8" d="M66.3633 174.574H70.3144C71.341 174.574 72.2029 174.908 72.9001 175.576C73.5974 176.245 73.946 177.097 73.946 178.133C73.946 179.169 73.5974 180.021 72.9001 180.69C72.2029 181.358 71.341 181.692 70.3144 181.692H68.9635V184.742H66.3633V174.574ZM68.9635 179.222H70.3144C70.605 179.222 70.8471 179.121 71.0408 178.917C71.2441 178.714 71.3458 178.453 71.3458 178.133C71.3458 177.813 71.2441 177.557 71.0408 177.363C70.8471 177.16 70.605 177.058 70.3144 177.058H68.9635V179.222ZM77.1987 177.479V178.83C77.3343 178.365 77.6006 178.002 77.9976 177.741C78.4044 177.47 78.8644 177.334 79.3776 177.334V180.007C78.8256 179.92 78.3221 180.021 77.8669 180.312C77.4214 180.602 77.1987 181.077 77.1987 181.735V184.742H74.7873V177.479H77.1987ZM83.6369 184.946C82.5523 184.946 81.6371 184.578 80.8914 183.842C80.1361 183.106 79.7584 182.195 79.7584 181.111C79.7584 180.046 80.1361 179.14 80.8914 178.394C81.6565 177.649 82.5717 177.276 83.6369 177.276C84.7216 177.276 85.6367 177.649 86.3824 178.394C87.1378 179.14 87.5155 180.046 87.5155 181.111C87.5155 182.195 87.1378 183.106 86.3824 183.842C85.6464 184.578 84.7312 184.946 83.6369 184.946ZM83.6369 182.622C84.063 182.622 84.4117 182.481 84.6828 182.2C84.9637 181.919 85.1041 181.556 85.1041 181.111C85.1041 180.665 84.9637 180.302 84.6828 180.021C84.4117 179.741 84.063 179.6 83.6369 179.6C83.2205 179.6 82.8719 179.745 82.591 180.036C82.3199 180.317 82.1843 180.675 82.1843 181.111C82.1843 181.547 82.3199 181.91 82.591 182.2C82.8719 182.481 83.2205 182.622 83.6369 182.622ZM92.2947 184.96C91.2392 184.96 90.353 184.738 89.6364 184.292C88.9295 183.847 88.4307 183.227 88.1402 182.433L90.3627 181.14C90.7404 182.041 91.4086 182.491 92.3674 182.491C93.1615 182.491 93.5585 182.263 93.5585 181.808C93.5585 181.518 93.3309 181.275 92.8758 181.082C92.7208 181.024 92.2947 180.893 91.5975 180.69C90.6097 180.409 89.8591 180.017 89.3459 179.513C88.8326 179.009 88.576 178.341 88.576 177.508C88.576 176.569 88.9101 175.809 89.5783 175.228C90.2659 174.647 91.1084 174.356 92.1059 174.356C92.9581 174.356 93.7135 174.559 94.372 174.966C95.0305 175.363 95.5341 175.935 95.8827 176.68L93.7038 177.959C93.3842 177.203 92.8564 176.826 92.1204 176.826C91.8202 176.826 91.5878 176.889 91.4232 177.014C91.2585 177.131 91.1762 177.29 91.1762 177.494C91.1762 177.717 91.2924 177.905 91.5248 178.06C91.7669 178.215 92.2318 178.394 92.9194 178.598C93.4326 178.753 93.8297 178.888 94.1105 179.005C94.4301 179.14 94.7594 179.324 95.0983 179.557C95.8053 180.021 96.1587 180.762 96.1587 181.779C96.1587 182.777 95.8053 183.556 95.0983 184.118C94.3914 184.679 93.4568 184.96 92.2947 184.96ZM96.2376 174.574H103.864V177.087H101.351V184.742H98.7507V177.087H96.2376V174.574ZM113.012 183.435C111.976 184.452 110.717 184.96 109.235 184.96C107.734 184.96 106.47 184.452 105.444 183.435C104.417 182.409 103.904 181.15 103.904 179.658C103.904 178.167 104.417 176.913 105.444 175.896C106.47 174.869 107.734 174.356 109.235 174.356C110.727 174.356 111.986 174.869 113.012 175.896C114.048 176.913 114.566 178.167 114.566 179.658C114.566 181.14 114.048 182.399 113.012 183.435ZM107.274 181.648C107.807 182.162 108.461 182.418 109.235 182.418C110.01 182.418 110.664 182.162 111.196 181.648C111.719 181.125 111.981 180.462 111.981 179.658C111.981 178.845 111.719 178.186 111.196 177.683C110.673 177.16 110.02 176.898 109.235 176.898C108.451 176.898 107.797 177.16 107.274 177.683C106.751 178.186 106.49 178.845 106.49 179.658C106.49 180.462 106.751 181.125 107.274 181.648ZM121.272 179.6C121.272 179.726 121.374 179.833 121.577 179.92C121.79 179.997 122.11 180.084 122.536 180.181C122.826 180.239 123.092 180.317 123.335 180.414C123.586 180.501 123.833 180.631 124.075 180.806C124.327 180.97 124.521 181.203 124.656 181.503C124.802 181.794 124.874 182.128 124.874 182.505C124.874 183.348 124.564 183.963 123.945 184.35C123.315 184.747 122.579 184.946 121.737 184.946C120.11 184.946 119.025 184.37 118.483 183.217L120.589 182.157C120.773 182.689 121.151 182.956 121.722 182.956C122.158 182.956 122.376 182.825 122.376 182.563C122.376 182.438 122.274 182.336 122.071 182.258C121.877 182.171 121.562 182.074 121.127 181.968C120.836 181.91 120.57 181.832 120.328 181.735C120.095 181.629 119.853 181.493 119.601 181.329C119.359 181.164 119.17 180.946 119.035 180.675C118.899 180.394 118.831 180.075 118.831 179.716C118.831 178.942 119.117 178.341 119.688 177.915C120.26 177.489 120.947 177.276 121.751 177.276C123.175 177.276 124.172 177.838 124.744 178.961L122.71 179.876C122.497 179.46 122.197 179.251 121.809 179.251C121.451 179.251 121.272 179.368 121.272 179.6ZM132.947 181.997H127.935C128.178 182.588 128.72 182.883 129.562 182.883C130.076 182.883 130.516 182.714 130.884 182.375L132.627 183.595C131.921 184.495 130.879 184.946 129.504 184.946C128.274 184.946 127.287 184.587 126.541 183.871C125.805 183.145 125.437 182.229 125.437 181.125C125.437 180.031 125.8 179.116 126.526 178.38C127.253 177.644 128.178 177.276 129.301 177.276C130.386 177.276 131.281 177.639 131.988 178.365C132.695 179.082 133.049 179.992 133.049 181.096C133.049 181.435 133.015 181.735 132.947 181.997ZM127.906 180.326H130.695C130.511 179.649 130.056 179.31 129.33 179.31C128.584 179.31 128.11 179.649 127.906 180.326ZM136.496 177.479V178.83C136.631 178.365 136.898 178.002 137.295 177.741C137.701 177.47 138.161 177.334 138.675 177.334V180.007C138.123 179.92 137.619 180.021 137.164 180.312C136.718 180.602 136.496 181.077 136.496 181.735V184.742H134.084V177.479H136.496ZM142.915 181.648L144.266 177.479H146.939L144.222 184.742H141.608L138.891 177.479H141.564L142.915 181.648ZM149.811 176.477C149.54 176.748 149.215 176.884 148.837 176.884C148.46 176.884 148.131 176.748 147.85 176.477C147.579 176.196 147.443 175.867 147.443 175.489C147.443 175.111 147.579 174.787 147.85 174.516C148.131 174.245 148.46 174.109 148.837 174.109C149.215 174.109 149.54 174.245 149.811 174.516C150.092 174.787 150.232 175.111 150.232 175.489C150.232 175.867 150.092 176.196 149.811 176.477ZM150.043 184.742H147.632V177.479H150.043V184.742ZM153.701 179.6C153.701 179.726 153.802 179.833 154.006 179.92C154.219 179.997 154.538 180.084 154.965 180.181C155.255 180.239 155.521 180.317 155.763 180.414C156.015 180.501 156.262 180.631 156.504 180.806C156.756 180.97 156.95 181.203 157.085 181.503C157.231 181.794 157.303 182.128 157.303 182.505C157.303 183.348 156.993 183.963 156.374 184.35C155.744 184.747 155.008 184.946 154.166 184.946C152.539 184.946 151.454 184.37 150.912 183.217L153.018 182.157C153.202 182.689 153.58 182.956 154.151 182.956C154.587 182.956 154.805 182.825 154.805 182.563C154.805 182.438 154.703 182.336 154.5 182.258C154.306 182.171 153.991 182.074 153.555 181.968C153.265 181.91 152.999 181.832 152.757 181.735C152.524 181.629 152.282 181.493 152.03 181.329C151.788 181.164 151.599 180.946 151.464 180.675C151.328 180.394 151.26 180.075 151.26 179.716C151.26 178.942 151.546 178.341 152.117 177.915C152.689 177.489 153.376 177.276 154.18 177.276C155.604 177.276 156.601 177.838 157.173 178.961L155.139 179.876C154.926 179.46 154.626 179.251 154.238 179.251C153.88 179.251 153.701 179.368 153.701 179.6Z" fill="black"/>
<path d="M72.5354 195.009H73.925V202.918H72.6257V197.28L70.2192 201.257H70.061L67.6545 197.269V202.918H66.3552V195.009H67.7562L70.1401 198.963L72.5354 195.009ZM80.202 202.206C79.6296 202.778 78.9253 203.065 78.0893 203.065C77.2532 203.065 76.5489 202.778 75.9765 202.206C75.3965 201.626 75.1065 200.922 75.1065 200.093C75.1065 199.265 75.3965 198.56 75.9765 197.98C76.5489 197.408 77.2532 197.122 78.0893 197.122C78.9253 197.122 79.6296 197.408 80.202 197.98C80.782 198.56 81.072 199.265 81.072 200.093C81.072 200.922 80.782 201.626 80.202 202.206ZM76.3267 200.093C76.3267 200.605 76.4962 201.031 76.8351 201.37C77.1741 201.709 77.5921 201.878 78.0893 201.878C78.5864 201.878 79.0044 201.709 79.3434 201.37C79.6823 201.031 79.8518 200.605 79.8518 200.093C79.8518 199.581 79.6823 199.155 79.3434 198.816C79.0044 198.478 78.5864 198.308 78.0893 198.308C77.5921 198.308 77.1741 198.478 76.8351 198.816C76.4962 199.155 76.3267 199.581 76.3267 200.093ZM82.1753 197.269H85.9603V198.444H83.3956V202.918H82.1753V197.269ZM87.9849 200.85L90.8773 197.269H91.8151V202.918H90.6174V199.325L87.7251 202.918H86.7873V197.269H87.9849V200.85ZM93.6715 197.269H97.9987V202.918H96.7785V198.444H94.8917V200.545C94.8917 201.426 94.6996 202.059 94.3155 202.443C93.9314 202.827 93.3702 202.986 92.6321 202.918V201.777C92.9785 201.837 93.2384 201.765 93.4116 201.562C93.5849 201.351 93.6715 200.993 93.6715 200.489V197.269ZM104.878 200.613H100.381C100.471 201.035 100.675 201.362 100.991 201.596C101.315 201.829 101.714 201.946 102.189 201.946C102.829 201.946 103.315 201.713 103.646 201.246L104.652 201.833C104.102 202.654 103.277 203.065 102.177 203.065C101.266 203.065 100.524 202.786 99.9517 202.229C99.3867 201.664 99.1043 200.952 99.1043 200.093C99.1043 199.257 99.383 198.553 99.9404 197.98C100.49 197.408 101.206 197.122 102.087 197.122C102.908 197.122 103.586 197.412 104.121 197.992C104.656 198.572 104.923 199.276 104.923 200.104C104.923 200.255 104.908 200.425 104.878 200.613ZM100.37 199.619H103.691C103.609 199.174 103.42 198.832 103.126 198.59C102.84 198.349 102.49 198.229 102.076 198.229C101.624 198.229 101.247 198.353 100.946 198.602C100.645 198.85 100.453 199.189 100.37 199.619ZM109.906 200.014C110.463 200.278 110.742 200.711 110.742 201.313C110.742 201.795 110.576 202.183 110.245 202.477C109.921 202.771 109.469 202.918 108.889 202.918H105.997V197.269H108.663C109.235 197.269 109.684 197.412 110.007 197.698C110.331 197.984 110.493 198.361 110.493 198.828C110.493 199.363 110.297 199.758 109.906 200.014ZM108.573 198.308H107.16V199.562H108.573C109.07 199.562 109.318 199.351 109.318 198.929C109.318 198.515 109.07 198.308 108.573 198.308ZM107.16 201.856H108.776C109.288 201.856 109.544 201.633 109.544 201.189C109.544 200.993 109.476 200.843 109.341 200.737C109.205 200.624 109.017 200.568 108.776 200.568H107.16V201.856ZM114.4 203.065C113.549 203.065 112.837 202.778 112.265 202.206C111.7 201.626 111.418 200.922 111.418 200.093C111.418 199.25 111.7 198.545 112.265 197.98C112.837 197.408 113.549 197.122 114.4 197.122C114.95 197.122 115.451 197.254 115.903 197.517C116.355 197.781 116.694 198.135 116.92 198.579L115.869 199.189C115.741 198.918 115.545 198.707 115.282 198.557C115.026 198.398 114.728 198.319 114.389 198.319C113.892 198.319 113.474 198.489 113.135 198.828C112.804 199.174 112.638 199.596 112.638 200.093C112.638 200.59 112.804 201.012 113.135 201.359C113.474 201.698 113.892 201.867 114.389 201.867C114.72 201.867 115.018 201.792 115.282 201.641C115.553 201.483 115.756 201.268 115.892 200.997L116.942 201.596C116.701 202.048 116.351 202.406 115.892 202.669C115.44 202.933 114.943 203.065 114.4 203.065ZM120.275 200.037L122.851 202.918H121.394L119.078 200.308V202.918H117.858V197.269H119.078V199.766L121.27 197.269H122.761L120.275 200.037ZM127.694 198.071V197.269H128.914V202.918H127.694V202.104C127.234 202.744 126.575 203.065 125.717 203.065C124.941 203.065 124.278 202.778 123.728 202.206C123.178 201.633 122.903 200.929 122.903 200.093C122.903 199.257 123.178 198.553 123.728 197.98C124.278 197.408 124.941 197.122 125.717 197.122C126.575 197.122 127.234 197.438 127.694 198.071ZM124.632 201.392C124.971 201.731 125.397 201.901 125.909 201.901C126.421 201.901 126.847 201.731 127.186 201.392C127.524 201.046 127.694 200.613 127.694 200.093C127.694 199.573 127.524 199.144 127.186 198.805C126.847 198.459 126.421 198.285 125.909 198.285C125.397 198.285 124.971 198.459 124.632 198.805C124.293 199.144 124.124 199.573 124.124 200.093C124.124 200.605 124.293 201.038 124.632 201.392ZM132.189 197.269H134.709V202.918H133.511V201.02H132.833L131.398 202.918H129.964L131.489 200.907C131.097 200.779 130.781 200.553 130.54 200.229C130.306 199.905 130.19 199.543 130.19 199.144C130.19 198.624 130.374 198.184 130.743 197.822C131.112 197.453 131.594 197.269 132.189 197.269ZM132.257 199.969H133.511V198.376H132.257C132.001 198.376 131.79 198.451 131.624 198.602C131.466 198.745 131.387 198.937 131.387 199.178C131.387 199.419 131.466 199.611 131.624 199.754C131.79 199.897 132.001 199.969 132.257 199.969ZM136.468 201.562H137.824L137.033 204.499H136.016L136.468 201.562ZM146.689 200.285H147.593V201.494H146.689V202.918H145.378V201.494H141.492V200.285L144.215 195.009H145.627L142.904 200.285H145.378V198.229H146.689V200.285ZM153.627 201.946C153.085 202.692 152.324 203.065 151.345 203.065C150.373 203.065 149.608 202.692 149.051 201.946C148.509 201.2 148.238 200.206 148.238 198.963C148.238 197.721 148.509 196.726 149.051 195.981C149.608 195.235 150.373 194.862 151.345 194.862C152.324 194.862 153.085 195.235 153.627 195.981C154.177 196.719 154.452 197.713 154.452 198.963C154.452 200.214 154.177 201.208 153.627 201.946ZM151.345 201.799C151.932 201.799 152.38 201.554 152.689 201.065C152.998 200.575 153.152 199.875 153.152 198.963C153.152 198.052 152.998 197.351 152.689 196.862C152.38 196.372 151.932 196.127 151.345 196.127C150.765 196.127 150.317 196.372 150 196.862C149.691 197.351 149.537 198.052 149.537 198.963C149.537 199.875 149.691 200.575 150 201.065C150.317 201.554 150.765 201.799 151.345 201.799Z" fill="#939393"/>
<path opacity="0.8" d="M66.3633 235.907H72.3772V238.421H68.9635V246.076H66.3633V235.907ZM76.9786 239.481V238.813H79.39V246.076H76.9786V245.408C76.4847 245.989 75.7972 246.279 74.9159 246.279C73.9378 246.279 73.1243 245.916 72.4755 245.19C71.8266 244.454 71.5022 243.539 71.5022 242.444C71.5022 241.34 71.8266 240.43 72.4755 239.713C73.1243 238.977 73.9378 238.609 74.9159 238.609C75.7972 238.609 76.4847 238.9 76.9786 239.481ZM74.3494 243.592C74.6205 243.882 74.9885 244.028 75.4534 244.028C75.9182 244.028 76.2862 243.882 76.5574 243.592C76.8382 243.292 76.9786 242.909 76.9786 242.444C76.9786 241.979 76.8382 241.597 76.5574 241.297C76.2862 241.006 75.9182 240.861 75.4534 240.861C74.9885 240.861 74.6205 241.006 74.3494 241.297C74.0685 241.597 73.9281 241.979 73.9281 242.444C73.9281 242.909 74.0685 243.292 74.3494 243.592ZM85.2621 238.609C86.2305 238.609 87.0391 238.977 87.688 239.713C88.3465 240.449 88.6757 241.36 88.6757 242.444C88.6757 243.529 88.3465 244.444 87.688 245.19C87.0294 245.916 86.2208 246.279 85.2621 246.279C84.3808 246.279 83.6932 245.989 83.1993 245.408V248.981H80.7879V238.813H83.1993V239.481C83.6932 238.9 84.3808 238.609 85.2621 238.609ZM83.6206 243.592C83.9014 243.882 84.2694 244.028 84.7246 244.028C85.1797 244.028 85.5477 243.882 85.8286 243.592C86.1094 243.292 86.2498 242.909 86.2498 242.444C86.2498 241.979 86.1094 241.597 85.8286 241.297C85.5477 241.006 85.1797 240.861 84.7246 240.861C84.2694 240.861 83.9014 241.006 83.6206 241.297C83.3397 241.597 83.1993 241.979 83.1993 242.444C83.1993 242.909 83.3397 243.292 83.6206 243.592ZM94.8528 239.481V238.813H97.2642V246.076H94.8528V245.408C94.3589 245.989 93.6714 246.279 92.7901 246.279C91.812 246.279 90.9985 245.916 90.3497 245.19C89.7008 244.454 89.3764 243.539 89.3764 242.444C89.3764 241.34 89.7008 240.43 90.3497 239.713C90.9985 238.977 91.812 238.609 92.7901 238.609C93.6714 238.609 94.3589 238.9 94.8528 239.481ZM92.2236 243.592C92.4947 243.882 92.8627 244.028 93.3276 244.028C93.7924 244.028 94.1604 243.882 94.4316 243.592C94.7124 243.292 94.8528 242.909 94.8528 242.444C94.8528 241.979 94.7124 241.597 94.4316 241.297C94.1604 241.006 93.7924 240.861 93.3276 240.861C92.8627 240.861 92.4947 241.006 92.2236 241.297C91.9427 241.597 91.8023 241.979 91.8023 242.444C91.8023 242.909 91.9427 243.292 92.2236 243.592ZM103.209 241.311V238.813H105.62V246.076H103.209V243.577H101.074V246.076H98.6621V238.813H101.074V241.311H103.209ZM106.437 238.813H113.032V241.122H110.954V246.076H108.543V241.122H106.437V238.813ZM126.24 246.076H123.437L123.001 244.609H119.616L119.18 246.076H116.362L119.718 235.907H122.885L126.24 246.076ZM121.301 238.914L120.284 242.372H122.333L121.301 238.914ZM132.456 242.372C133.134 242.691 133.473 243.229 133.473 243.984C133.473 244.633 133.25 245.146 132.805 245.524C132.369 245.892 131.744 246.076 130.931 246.076H126.878V238.813H130.684C131.497 238.813 132.122 239.002 132.558 239.379C132.993 239.757 133.211 240.265 133.211 240.905C133.211 241.553 132.96 242.042 132.456 242.372ZM130.321 240.614H129.188V241.573H130.321C130.708 241.573 130.902 241.418 130.902 241.108C130.902 240.779 130.708 240.614 130.321 240.614ZM129.188 244.246H130.509C130.887 244.246 131.076 244.076 131.076 243.737C131.076 243.418 130.887 243.258 130.509 243.258H129.188V244.246ZM133.702 238.813H140.297V241.122H138.22V246.076H135.808V241.122H133.702V238.813ZM144.409 246.279C143.325 246.279 142.409 245.911 141.664 245.175C140.908 244.439 140.531 243.529 140.531 242.444C140.531 241.379 140.908 240.474 141.664 239.728C142.429 238.982 143.344 238.609 144.409 238.609C145.494 238.609 146.409 238.982 147.155 239.728C147.91 240.474 148.288 241.379 148.288 242.444C148.288 243.529 147.91 244.439 147.155 245.175C146.419 245.911 145.504 246.279 144.409 246.279ZM144.409 243.955C144.835 243.955 145.184 243.815 145.455 243.534C145.736 243.253 145.876 242.89 145.876 242.444C145.876 241.999 145.736 241.636 145.455 241.355C145.184 241.074 144.835 240.934 144.409 240.934C143.993 240.934 143.644 241.079 143.363 241.369C143.092 241.65 142.957 242.009 142.957 242.444C142.957 242.88 143.092 243.243 143.363 243.534C143.644 243.815 143.993 243.955 144.409 243.955Z" fill="black"/>
<path d="M72.9647 263.212C72.1738 264.003 71.2059 264.398 70.061 264.398C68.9161 264.398 67.9445 264.003 67.1461 263.212C66.3552 262.414 65.9598 261.442 65.9598 260.297C65.9598 259.152 66.3552 258.184 67.1461 257.393C67.9445 256.595 68.9161 256.196 70.061 256.196C71.2059 256.196 72.1738 256.595 72.9647 257.393C73.7631 258.184 74.1623 259.152 74.1623 260.297C74.1623 261.442 73.7631 262.414 72.9647 263.212ZM68.0612 262.331C68.6111 262.866 69.2777 263.133 70.061 263.133C70.8519 263.133 71.5148 262.866 72.0495 262.331C72.5919 261.788 72.863 261.111 72.863 260.297C72.863 259.484 72.5919 258.809 72.0495 258.275C71.5148 257.732 70.8519 257.461 70.061 257.461C69.2702 257.461 68.6036 257.732 68.0612 258.275C67.5265 258.809 67.2591 259.484 67.2591 260.297C67.2591 261.103 67.5265 261.781 68.0612 262.331ZM77.6862 261.37L80.2622 264.251H78.8048L76.4886 261.642V264.251H75.2684V258.602H76.4886V261.099L78.6805 258.602H80.1718L77.6862 261.37ZM80.4842 258.602H85.399V259.777H83.5573V264.251H82.3371V259.777H80.4842V258.602ZM87.7355 258.602H90.255V264.251H89.0574V262.353H88.3795L86.9446 264.251H85.5097L87.035 262.24C86.6433 262.112 86.327 261.886 86.086 261.562C85.8525 261.239 85.7357 260.877 85.7357 260.478C85.7357 259.958 85.9202 259.517 86.2893 259.156C86.6584 258.787 87.1405 258.602 87.7355 258.602ZM87.8033 261.303H89.0574V259.71H87.8033C87.5472 259.71 87.3363 259.785 87.1706 259.936C87.0124 260.079 86.9333 260.271 86.9333 260.512C86.9333 260.753 87.0124 260.945 87.1706 261.088C87.3363 261.231 87.5472 261.303 87.8033 261.303ZM94.2964 264.398C93.4377 264.398 92.7297 264.12 92.1723 263.562C91.63 262.997 91.3588 262.278 91.3588 261.404C91.3588 260.455 91.5019 259.717 91.7881 259.19C92.0668 258.67 92.6468 258.192 93.5281 257.755C93.5582 257.74 93.6072 257.717 93.6749 257.687C93.7503 257.65 93.8294 257.612 93.9122 257.574C93.9951 257.537 94.0779 257.499 94.1608 257.461C94.4771 257.318 94.673 257.228 94.7483 257.19C94.7935 257.167 94.9253 257.085 95.1437 256.941C95.4073 256.753 95.5844 256.486 95.6747 256.139L96.669 256.716C96.6313 257.13 96.3715 257.51 95.8894 257.857C95.8066 257.932 95.6521 258.022 95.4262 258.128L94.9404 258.354L94.3754 258.591C93.8858 258.787 93.5243 258.986 93.2908 259.19C93.0573 259.393 92.8954 259.653 92.805 259.969C93.2569 259.457 93.8708 259.201 94.6466 259.201C95.3094 259.201 95.8856 259.438 96.3752 259.913C96.8724 260.387 97.1209 261.001 97.1209 261.755C97.1209 262.523 96.8573 263.156 96.33 263.653C95.8103 264.15 95.1324 264.398 94.2964 264.398ZM94.2851 263.257C94.7596 263.257 95.1475 263.118 95.4488 262.839C95.7501 262.553 95.9007 262.191 95.9007 261.755C95.9007 261.31 95.7501 260.945 95.4488 260.659C95.155 260.372 94.7709 260.229 94.2964 260.229C93.8745 260.229 93.4942 260.365 93.1552 260.636C92.8163 260.892 92.6468 261.246 92.6468 261.698C92.6468 262.15 92.805 262.523 93.1213 262.817C93.4377 263.11 93.8256 263.257 94.2851 263.257ZM102.865 263.54C102.292 264.112 101.588 264.398 100.752 264.398C99.9159 264.398 99.2117 264.112 98.6392 263.54C98.0592 262.96 97.7692 262.255 97.7692 261.427C97.7692 260.598 98.0592 259.894 98.6392 259.314C99.2117 258.742 99.9159 258.455 100.752 258.455C101.588 258.455 102.292 258.742 102.865 259.314C103.445 259.894 103.735 260.598 103.735 261.427C103.735 262.255 103.445 262.96 102.865 263.54ZM98.9895 261.427C98.9895 261.939 99.1589 262.365 99.4979 262.704C99.8368 263.043 100.255 263.212 100.752 263.212C101.249 263.212 101.667 263.043 102.006 262.704C102.345 262.365 102.515 261.939 102.515 261.427C102.515 260.915 102.345 260.489 102.006 260.15C101.667 259.811 101.249 259.642 100.752 259.642C100.255 259.642 99.8368 259.811 99.4979 260.15C99.1589 260.489 98.9895 260.915 98.9895 261.427ZM108.035 258.455C108.804 258.455 109.467 258.745 110.024 259.325C110.574 259.898 110.849 260.598 110.849 261.427C110.849 262.263 110.574 262.967 110.024 263.54C109.474 264.112 108.811 264.398 108.035 264.398C107.184 264.398 106.525 264.082 106.058 263.449V266.511H104.838V258.602H106.058V259.416C106.518 258.776 107.177 258.455 108.035 258.455ZM106.567 262.726C106.906 263.065 107.331 263.235 107.843 263.235C108.356 263.235 108.781 263.065 109.12 262.726C109.459 262.38 109.629 261.947 109.629 261.427C109.629 260.907 109.459 260.478 109.12 260.139C108.781 259.792 108.356 259.619 107.843 259.619C107.331 259.619 106.906 259.792 106.567 260.139C106.228 260.478 106.058 260.907 106.058 261.427C106.058 261.939 106.228 262.372 106.567 262.726ZM113.175 260.523H114.418C115.028 260.523 115.521 260.696 115.898 261.043C116.282 261.382 116.474 261.83 116.474 262.387C116.474 262.937 116.282 263.385 115.898 263.732C115.521 264.078 115.028 264.251 114.418 264.251H111.955V258.602H113.175V260.523ZM113.175 263.156H114.429C114.67 263.156 114.87 263.084 115.028 262.941C115.193 262.798 115.276 262.613 115.276 262.387C115.276 262.161 115.197 261.977 115.039 261.834C114.881 261.691 114.678 261.619 114.429 261.619H113.175V263.156ZM120.072 264.398C119.22 264.398 118.509 264.112 117.936 263.54C117.371 262.96 117.089 262.255 117.089 261.427C117.089 260.583 117.371 259.879 117.936 259.314C118.509 258.742 119.22 258.455 120.072 258.455C120.621 258.455 121.122 258.587 121.574 258.851C122.026 259.115 122.365 259.469 122.591 259.913L121.54 260.523C121.412 260.252 121.216 260.041 120.953 259.89C120.697 259.732 120.399 259.653 120.06 259.653C119.563 259.653 119.145 259.823 118.806 260.161C118.475 260.508 118.309 260.93 118.309 261.427C118.309 261.924 118.475 262.346 118.806 262.692C119.145 263.031 119.563 263.201 120.06 263.201C120.392 263.201 120.689 263.125 120.953 262.975C121.224 262.817 121.427 262.602 121.563 262.331L122.614 262.93C122.373 263.381 122.022 263.739 121.563 264.003C121.111 264.267 120.614 264.398 120.072 264.398ZM125.947 261.37L128.523 264.251H127.065L124.749 261.642V264.251H123.529V258.602H124.749V261.099L126.941 258.602H128.432L125.947 261.37ZM133.365 259.405V258.602H134.585V264.251H133.365V263.438C132.906 264.078 132.247 264.398 131.388 264.398C130.612 264.398 129.949 264.112 129.399 263.54C128.85 262.967 128.575 262.263 128.575 261.427C128.575 260.591 128.85 259.887 129.399 259.314C129.949 258.742 130.612 258.455 131.388 258.455C132.247 258.455 132.906 258.772 133.365 259.405ZM130.303 262.726C130.642 263.065 131.068 263.235 131.58 263.235C132.092 263.235 132.518 263.065 132.857 262.726C133.196 262.38 133.365 261.947 133.365 261.427C133.365 260.907 133.196 260.478 132.857 260.139C132.518 259.792 132.092 259.619 131.58 259.619C131.068 259.619 130.642 259.792 130.303 260.139C129.964 260.478 129.795 260.907 129.795 261.427C129.795 261.939 129.964 262.372 130.303 262.726ZM137.861 258.602H140.38V264.251H139.182V262.353H138.505L137.07 264.251H135.635L137.16 262.24C136.768 262.112 136.452 261.886 136.211 261.562C135.977 261.239 135.861 260.877 135.861 260.478C135.861 259.958 136.045 259.517 136.414 259.156C136.783 258.787 137.265 258.602 137.861 258.602ZM137.928 261.303H139.182V259.71H137.928C137.672 259.71 137.461 259.785 137.296 259.936C137.137 260.079 137.058 260.271 137.058 260.512C137.058 260.753 137.137 260.945 137.296 261.088C137.461 261.231 137.672 261.303 137.928 261.303ZM142.139 262.896H143.495L142.704 265.833H141.687L142.139 262.896ZM152.462 264.251H147.253V263.235L150.01 260.421C150.68 259.751 151.016 259.171 151.016 258.681C151.016 258.305 150.903 258.007 150.677 257.789C150.451 257.57 150.157 257.461 149.795 257.461C149.133 257.461 148.643 257.789 148.327 258.444L147.231 257.8C147.472 257.28 147.818 256.885 148.27 256.614C148.722 256.335 149.227 256.196 149.784 256.196C150.485 256.196 151.08 256.414 151.569 256.851C152.066 257.295 152.315 257.891 152.315 258.636C152.315 259.435 151.867 260.293 150.97 261.212L149.185 262.997H152.462V264.251ZM158.151 257.45L156.546 259.574C157.134 259.71 157.601 259.981 157.947 260.387C158.301 260.787 158.478 261.276 158.478 261.856C158.478 262.647 158.211 263.269 157.676 263.72C157.149 264.172 156.494 264.398 155.71 264.398C155.093 264.398 154.547 264.259 154.072 263.98C153.598 263.694 153.259 263.287 153.055 262.76L154.163 262.116C154.396 262.794 154.912 263.133 155.71 263.133C156.162 263.133 156.52 263.02 156.784 262.794C157.047 262.56 157.179 262.248 157.179 261.856C157.179 261.465 157.047 261.156 156.784 260.93C156.52 260.704 156.162 260.591 155.71 260.591H155.417L154.897 259.811L156.603 257.563H153.293V256.343H158.151V257.45Z" fill="#939393"/>
<path d="M53.4591 219.76H320.986" stroke="#E3E3E3" stroke-width="0.403509" stroke-linecap="round"/>
</g>
<rect x="49" y="362" width="278" height="43" fill="url(#paint0_linear_1004_1668)"/>
<defs>
<filter id="filter0_d_1004_1668" x="13.1082" y="108.873" width="349.439" height="200.948" filterUnits="userSpaceOnUse" color-interpolation-filters="sRGB">
<feFlood flood-opacity="0" result="BackgroundImageFix"/>
<feColorMatrix in="SourceAlpha" type="matrix" values="0 0 0 0 0 0 0 0 0 0 0 0 0 0 0 0 0 0 127 0" result="hardAlpha"/>
<feOffset dy="-10.4135"/>
<feGaussianBlur stdDeviation="19.772"/>
<feComposite in2="hardAlpha" operator="out"/>
<feColorMatrix type="matrix" values="0 0 0 0 0 0 0 0 0 0 0 0 0 0 0 0 0 0 0.15 0"/>
<feBlend mode="normal" in2="BackgroundImageFix" result="effect1_dropShadow_1004_1668"/>
<feBlend mode="normal" in="SourceGraphic" in2="effect1_dropShadow_1004_1668" result="shape"/>
</filter>
<linearGradient id="paint0_linear_1004_1668" x1="188" y1="362" x2="188" y2="405" gradientUnits="userSpaceOnUse">
<stop stop-color="white" stop-opacity="0"/>
<stop offset="0.786458" stop-color="white"/>
</linearGradient>
<clipPath id="clip0_1004_1668">
<rect width="9.61561" height="9.61561" fill="white" transform="translate(264.651 356.618)"/>
</clipPath>
<clipPath id="clip1_1004_1668">
<path d="M87.3635 304.934C87.3635 298.296 92.7448 292.915 99.383 292.915H276.671C283.309 292.915 288.69 298.296 288.69 304.934V340.993H87.3635V304.934Z" fill="white"/>
</clipPath>
</defs>
</svg>
