<svg width="67" height="70" viewBox="0 0 67 70" fill="none" xmlns="http://www.w3.org/2000/svg">
<path d="M62.64 28.5012H52.5828C44.3352 28.5012 37.6188 21.7848 37.6188 13.5372V3.48C37.6188 1.566 36.0528 0 34.1388 0H19.3836C8.6652 0 0 6.96 0 19.3836V50.2164C0 62.64 8.6652 69.6 19.3836 69.6H46.7364C57.4548 69.6 66.12 62.64 66.12 50.2164V31.9812C66.12 30.0672 64.554 28.5012 62.64 28.5012ZM31.4244 40.1244C30.9024 40.6464 30.2412 40.89 29.58 40.89C28.9188 40.89 28.2576 40.6464 27.7356 40.1244L25.23 37.6188V52.2C25.23 53.6268 24.0468 54.81 22.62 54.81C21.1932 54.81 20.01 53.6268 20.01 52.2V37.6188L17.5044 40.1244C16.4952 41.1336 14.8248 41.1336 13.8156 40.1244C12.8064 39.1152 12.8064 37.4448 13.8156 36.4356L20.7756 29.4756C21.0192 29.2668 21.2628 29.0928 21.5412 28.9536C21.6108 28.9188 21.7152 28.884 21.7848 28.8492C21.9936 28.7796 22.2024 28.7448 22.446 28.71H22.7244C23.0028 28.71 23.2812 28.7796 23.5596 28.884H23.6292C23.9076 28.9884 24.186 29.1972 24.3948 29.406C24.4296 29.4408 24.4644 29.4408 24.4644 29.4756L31.4244 36.4356C32.4336 37.4448 32.4336 39.1152 31.4244 40.1244Z" fill="#292D32"/>
<path d="M51.9554 23.7005C55.2614 23.7353 59.855 23.7353 63.7874 23.7353C65.771 23.7353 66.815 21.4037 65.423 20.0117C60.4118 14.9657 51.4334 5.88288 46.283 0.732482C44.8562 -0.694318 42.3854 0.280083 42.3854 2.26368V14.4089C42.3854 19.4897 46.7006 23.7005 51.9554 23.7005Z" fill="#292D32"/>
</svg>
