<svg width="69" height="72" viewBox="0 0 69 72" fill="none" xmlns="http://www.w3.org/2000/svg">
<path d="M64.64 29.5012H54.5828C46.3352 29.5012 39.6188 22.7848 39.6188 14.5372V4.48C39.6188 2.566 38.0528 1 36.1388 1H21.3836C10.6652 1 2 7.96 2 20.3836V51.2164C2 63.64 10.6652 70.6 21.3836 70.6H48.7364C59.4548 70.6 68.12 63.64 68.12 51.2164V32.9812C68.12 31.0672 66.554 29.5012 64.64 29.5012ZM33.4244 41.1244C32.9024 41.6464 32.2412 41.89 31.58 41.89C30.9188 41.89 30.2576 41.6464 29.7356 41.1244L27.23 38.6188V53.2C27.23 54.6268 26.0468 55.81 24.62 55.81C23.1932 55.81 22.01 54.6268 22.01 53.2V38.6188L19.5044 41.1244C18.4952 42.1336 16.8248 42.1336 15.8156 41.1244C14.8064 40.1152 14.8064 38.4448 15.8156 37.4356L22.7756 30.4756C23.0192 30.2668 23.2628 30.0928 23.5412 29.9536C23.6108 29.9188 23.7152 29.884 23.7848 29.8492C23.9936 29.7796 24.2024 29.7448 24.446 29.71H24.7244C25.0028 29.71 25.2812 29.7796 25.5596 29.884H25.6292C25.9076 29.9884 26.186 30.1972 26.3948 30.406C26.4296 30.4408 26.4644 30.4408 26.4644 30.4756L33.4244 37.4356C34.4336 38.4448 34.4336 40.1152 33.4244 41.1244Z" fill="#3D3D3D"/>
<path d="M53.9554 24.7005C57.2614 24.7353 61.855 24.7353 65.7874 24.7353C67.771 24.7353 68.815 22.4037 67.423 21.0117C62.4118 15.9657 53.4334 6.88288 48.283 1.73248C46.8562 0.305682 44.3854 1.28008 44.3854 3.26368V15.4089C44.3854 20.4897 48.7006 24.7005 53.9554 24.7005Z" fill="#3D3D3D"/>
</svg>
