<svg width="24" height="24" viewBox="0 0 24 24" fill="none" xmlns="http://www.w3.org/2000/svg">
<rect width="24" height="24" rx="6" fill="#2042E9"/>
<path d="M5.96037 17.3269V9.21111C5.96037 8.10654 6.8558 7.21111 7.96037 7.21111H10.584C11.1145 7.21111 11.6232 7.42183 11.9982 7.7969L15.0672 10.8658C15.4423 11.2409 15.653 11.7496 15.653 12.2801V17.3269C15.653 18.4314 14.7575 19.3269 13.653 19.3269H7.96037C6.8558 19.3269 5.96037 18.4314 5.96037 17.3269Z" fill="white"/>
<path d="M8.08057 5.21158V14.9042C8.08057 16.1256 9.07072 17.1157 10.2921 17.1157H17.5616C18.783 17.1157 19.7732 16.1256 19.7732 14.9042V8.74236C19.7732 8.15582 19.5402 7.59329 19.1254 7.17854L15.5946 3.64775C15.1799 3.233 14.6173 3 14.0308 3H10.2921C9.07072 3 8.08057 3.99016 8.08057 5.21158Z" fill="white" stroke="#2042E9" stroke-width="2"/>
<path d="M14.5327 4V7.02894C14.5327 7.69807 15.0752 8.24051 15.7443 8.24051H18.7732" stroke="#2042E9" stroke-width="1.02984"/>
</svg>
