<svg width="12" height="12" viewBox="0 0 12 12" fill="none" xmlns="http://www.w3.org/2000/svg">
<path id="Vector" d="M2.78003 1.00185C2.72031 0.996907 2.65951 1.00185 2.59867 1.01674C2.36249 1.07435 2.05609 1.21427 1.73467 1.53569C0.728513 2.54186 0.194689 4.23804 3.97791 8.02174C7.76114 11.8054 9.45732 11.2716 10.464 10.265C10.7863 9.94261 10.9262 9.63578 10.9838 9.39912C11.0424 9.15675 10.9377 8.90729 10.7225 8.78158C10.1854 8.4673 9.02618 7.78778 8.48857 7.47302C8.31191 7.36969 8.0951 7.37153 7.91939 7.47581L7.03028 8.00593C6.83124 8.1245 6.58257 8.11111 6.39972 7.96873C6.08401 7.72207 5.57631 7.30667 5.13394 6.86478C4.69158 6.42241 4.27618 5.91471 4.03 5.59901C3.88762 5.41663 3.87375 5.16749 3.99279 4.96844L4.52291 4.07933C4.62767 3.90362 4.6281 3.68495 4.52477 3.50829L3.21901 1.279C3.12401 1.11758 2.9592 1.0167 2.78003 1.00185Z" fill="black" stroke="black" stroke-width="0.5"/>
</svg>
