<svg width="26" height="26" viewBox="0 0 26 26" fill="none" xmlns="http://www.w3.org/2000/svg">
<path fill-rule="evenodd" clip-rule="evenodd" d="M14 1.00024C14 0.447959 13.5523 0.000244141 13 0.000244141C12.4477 0.000244141 12 0.447959 12 1.00024V12.0002H1C0.447714 12.0002 0 12.448 0 13.0002C0 13.5525 0.447714 14.0002 1 14.0002H12V25.0002C12 25.5525 12.4477 26.0002 13 26.0002C13.5523 26.0002 14 25.5525 14 25.0002V14.0002H25C25.5523 14.0002 26 13.5525 26 13.0002C26 12.448 25.5523 12.0002 25 12.0002H14V1.00024Z" fill="#ADADAD"/>
</svg>
