<svg width="24" height="24" viewBox="0 0 24 24" fill="none" xmlns="http://www.w3.org/2000/svg">
<rect x="1" y="1" width="22" height="22" rx="11" fill="#E84949"/>
<path fill-rule="evenodd" clip-rule="evenodd" d="M11.9999 5.33301C11.0794 5.33301 10.3332 6.0792 10.3332 6.99968V12.5552C10.3332 13.4757 11.0794 14.2219 11.9999 14.2219C12.9203 14.2219 13.6665 13.4757 13.6665 12.5552V6.99967C13.6665 6.0792 12.9203 5.33301 11.9999 5.33301ZM11.9999 15.3331C11.0795 15.3331 10.3333 16.0793 10.3333 16.9998C10.3333 17.9203 11.0795 18.6665 11.9999 18.6665C12.9204 18.6665 13.6666 17.9203 13.6666 16.9998C13.6666 16.0793 12.9204 15.3331 11.9999 15.3331Z" fill="white"/>
<rect x="1" y="1" width="22" height="22" rx="11" stroke="white" stroke-width="2"/>
</svg>
