<svg width="38" height="38" viewBox="0 0 38 38" fill="none" xmlns="http://www.w3.org/2000/svg">
<path d="M19 0.791748C12.0333 0.791748 4.75 6.33341 4.75 14.2501C4.75 23.7501 19 38.0001 19 38.0001C19 38.0001 33.25 23.7501 33.25 14.2501C33.25 6.33341 25.9667 0.791748 19 0.791748ZM19 20.5834C15.5167 20.5834 12.6667 17.7334 12.6667 14.2501C12.6667 10.7667 15.5167 7.91675 19 7.91675C22.4833 7.91675 25.3333 10.7667 25.3333 14.2501C25.3333 17.7334 22.4833 20.5834 19 20.5834Z" fill="#1C9837"/>
<g clip-path="url(#clip0_1503_698)">
<path d="M29.5 15C29.5 20.799 24.799 25.5 19 25.5C13.201 25.5 8.5 20.799 8.5 15C8.5 9.20101 13.201 4.5 19 4.5C24.799 4.5 29.5 9.20101 29.5 15Z" fill="white"/>
<path d="M20.24 9C21.3387 9 22.2667 9.37333 23.024 10.12C23.7813 10.8667 24.16 11.7733 24.16 12.84C24.16 13.9067 23.7813 14.8133 23.024 15.56C22.2667 16.3067 21.3387 16.68 20.24 16.68H18.56V20.2H16V9H20.24ZM20.24 14.28C20.6347 14.28 20.96 14.1413 21.216 13.864C21.472 13.5867 21.6 13.2453 21.6 12.84C21.6 12.4347 21.472 12.0933 21.216 11.816C20.96 11.5387 20.6347 11.4 20.24 11.4H18.56V14.28H20.24Z" fill="black"/>
</g>
<defs>
<clipPath id="clip0_1503_698">
<rect width="21" height="21" fill="white" transform="translate(8.5 4.5)"/>
</clipPath>
</defs>
</svg>
