<svg width="24" height="24" viewBox="0 0 24 24" fill="none" xmlns="http://www.w3.org/2000/svg">
<rect width="24" height="24" rx="12" fill="#1C9837"/>
<path d="M12.8472 5C14.0976 5 15.15 5.42095 16.0043 6.26286C16.8586 7.10477 17.2857 8.13858 17.2857 9.3643C17.2857 10.59 16.8586 11.6238 16.0043 12.4657C15.15 13.3076 14.0976 13.7286 12.8472 13.7286H10.5629V18H8V5H12.8472ZM12.8472 11.3329C13.3919 11.3329 13.8438 11.1472 14.2029 10.7757C14.5619 10.3919 14.7414 9.92144 14.7414 9.3643C14.7414 8.79477 14.5619 8.32429 14.2029 7.95286C13.8438 7.58144 13.3919 7.39572 12.8472 7.39572H10.5629V11.3329H12.8472Z" fill="white"/>
</svg>
